<?xml version="1.0" encoding="UTF-8" standalone="no"?>
<!DOCTYPE svg PUBLIC "-//W3C//DTD SVG 1.1//EN"
 "http://www.w3.org/Graphics/SVG/1.1/DTD/svg11.dtd">
<!-- Generated by graphviz version 5.0.0 (20220707.1540)
 -->
<!-- Title: UmlClassDiagram Pages: 1 -->
<svg width="2736pt" height="1280pt"
 viewBox="0.00 0.00 2736.13 1280.00" xmlns="http://www.w3.org/2000/svg" xmlns:xlink="http://www.w3.org/1999/xlink">
<g id="graph0" class="graph" transform="scale(1 1) rotate(0) translate(4 1276)">
<title>UmlClassDiagram</title>
<polygon fill="white" stroke="transparent" points="-4,4 -4,-1276 2732.13,-1276 2732.13,4 -4,4"/>
<!-- 0 -->
<g id="node1" class="node">
<title>0</title>
<polygon fill="#f2f2f2" stroke="black" points="768.05,-936.7 768.05,-978.3 865.37,-978.3 865.37,-936.7 768.05,-936.7"/>
<text text-anchor="middle" x="816.71" y="-961.7" font-family="Times,serif" font-size="14.00">&lt;&lt;Interface&gt;&gt;</text>
<text text-anchor="middle" x="816.71" y="-944.9" font-family="Times,serif" font-size="14.00">IERC20Errors</text>
</g>
<!-- 1 -->
<g id="node2" class="node">
<title>1</title>
<polygon fill="#f2f2f2" stroke="black" points="1479.77,-29.7 1479.77,-71.3 1583.65,-71.3 1583.65,-29.7 1479.77,-29.7"/>
<text text-anchor="middle" x="1531.71" y="-54.7" font-family="Times,serif" font-size="14.00">&lt;&lt;Interface&gt;&gt;</text>
<text text-anchor="middle" x="1531.71" y="-37.9" font-family="Times,serif" font-size="14.00">IERC721Errors</text>
</g>
<!-- 2 -->
<g id="node3" class="node">
<title>2</title>
<polygon fill="#f2f2f2" stroke="black" points="1601.27,-29.7 1601.27,-71.3 1712.15,-71.3 1712.15,-29.7 1601.27,-29.7"/>
<text text-anchor="middle" x="1656.71" y="-54.7" font-family="Times,serif" font-size="14.00">&lt;&lt;Interface&gt;&gt;</text>
<text text-anchor="middle" x="1656.71" y="-37.9" font-family="Times,serif" font-size="14.00">IERC1155Errors</text>
</g>
<!-- 3 -->
<g id="node4" class="node">
<title>3</title>
<polygon fill="#f2f2f2" stroke="black" points="771.03,-1053.9 771.03,-1271.5 1200.39,-1271.5 1200.39,-1053.9 771.03,-1053.9"/>
<text text-anchor="middle" x="985.71" y="-1254.9" font-family="Times,serif" font-size="14.00">&lt;&lt;Interface&gt;&gt;</text>
<text text-anchor="middle" x="985.71" y="-1238.1" font-family="Times,serif" font-size="14.00">IERC20</text>
<polyline fill="none" stroke="black" points="771.03,-1229.9 1200.39,-1229.9 "/>
<text text-anchor="start" x="779.03" y="-1213.3" font-family="Times,serif" font-size="14.00">External:</text>
<text text-anchor="start" x="779.03" y="-1196.5" font-family="Times,serif" font-size="14.00"> &#160;&#160;&#160;&#160;totalSupply(): uint256</text>
<text text-anchor="start" x="779.03" y="-1179.7" font-family="Times,serif" font-size="14.00"> &#160;&#160;&#160;&#160;balanceOf(account: address): uint256</text>
<text text-anchor="start" x="779.03" y="-1162.9" font-family="Times,serif" font-size="14.00"> &#160;&#160;&#160;&#160;transfer(to: address, value: uint256): bool</text>
<text text-anchor="start" x="779.03" y="-1146.1" font-family="Times,serif" font-size="14.00"> &#160;&#160;&#160;&#160;allowance(owner: address, spender: address): uint256</text>
<text text-anchor="start" x="779.03" y="-1129.3" font-family="Times,serif" font-size="14.00"> &#160;&#160;&#160;&#160;approve(spender: address, value: uint256): bool</text>
<text text-anchor="start" x="779.03" y="-1112.5" font-family="Times,serif" font-size="14.00"> &#160;&#160;&#160;&#160;transferFrom(from: address, to: address, value: uint256): bool</text>
<text text-anchor="start" x="779.03" y="-1095.7" font-family="Times,serif" font-size="14.00">Public:</text>
<text text-anchor="start" x="779.03" y="-1078.9" font-family="Times,serif" font-size="14.00"> &#160;&#160;&#160;&lt;&lt;event&gt;&gt; Transfer(from: address, to: address, value: uint256)</text>
<text text-anchor="start" x="779.03" y="-1062.1" font-family="Times,serif" font-size="14.00"> &#160;&#160;&#160;&lt;&lt;event&gt;&gt; Approval(owner: address, spender: address, value: uint256)</text>
</g>
<!-- 4 -->
<g id="node5" class="node">
<title>4</title>
<polygon fill="#f2f2f2" stroke="black" points="921.33,-899.1 921.33,-1015.9 1050.09,-1015.9 1050.09,-899.1 921.33,-899.1"/>
<text text-anchor="middle" x="985.71" y="-999.3" font-family="Times,serif" font-size="14.00">&lt;&lt;Interface&gt;&gt;</text>
<text text-anchor="middle" x="985.71" y="-982.5" font-family="Times,serif" font-size="14.00">IERC20Metadata</text>
<polyline fill="none" stroke="black" points="921.33,-974.3 1050.09,-974.3 "/>
<text text-anchor="start" x="929.33" y="-957.7" font-family="Times,serif" font-size="14.00">External:</text>
<text text-anchor="start" x="929.33" y="-940.9" font-family="Times,serif" font-size="14.00"> &#160;&#160;&#160;&#160;name(): string</text>
<text text-anchor="start" x="929.33" y="-924.1" font-family="Times,serif" font-size="14.00"> &#160;&#160;&#160;&#160;symbol(): string</text>
<text text-anchor="start" x="929.33" y="-907.3" font-family="Times,serif" font-size="14.00"> &#160;&#160;&#160;&#160;decimals(): uint8</text>
</g>
<!-- 4&#45;&gt;3 -->
<g id="edge1" class="edge">
<title>4&#45;&gt;3</title>
<path fill="none" stroke="black" stroke-dasharray="5,2" d="M985.71,-1015.91C985.71,-1018.41 985.71,-1020.96 985.71,-1023.54"/>
<polygon fill="none" stroke="black" points="975.21,-1023.61 985.71,-1053.61 996.21,-1023.61 975.21,-1023.61"/>
</g>
<!-- 5 -->
<g id="node6" class="node">
<title>5</title>
<polygon fill="#f2f2f2" stroke="black" points="1068.53,-899.1 1068.53,-1015.9 1280.89,-1015.9 1280.89,-899.1 1068.53,-899.1"/>
<text text-anchor="middle" x="1174.71" y="-999.3" font-family="Times,serif" font-size="14.00">&lt;&lt;Abstract&gt;&gt;</text>
<text text-anchor="middle" x="1174.71" y="-982.5" font-family="Times,serif" font-size="14.00">Context</text>
<polyline fill="none" stroke="black" points="1068.53,-974.3 1280.89,-974.3 "/>
<text text-anchor="start" x="1076.53" y="-957.7" font-family="Times,serif" font-size="14.00">Internal:</text>
<text text-anchor="start" x="1076.53" y="-940.9" font-family="Times,serif" font-size="14.00"> &#160;&#160;&#160;_msgSender(): address</text>
<text text-anchor="start" x="1076.53" y="-924.1" font-family="Times,serif" font-size="14.00"> &#160;&#160;&#160;_msgData(): bytes</text>
<text text-anchor="start" x="1076.53" y="-907.3" font-family="Times,serif" font-size="14.00"> &#160;&#160;&#160;_contextSuffixLength(): uint256</text>
</g>
<!-- 6 -->
<g id="node7" class="node">
<title>6</title>
<polygon fill="#f2f2f2" stroke="black" points="663.71,-383.5 663.71,-861.1 1123.71,-861.1 1123.71,-383.5 663.71,-383.5"/>
<text text-anchor="middle" x="893.71" y="-844.5" font-family="Times,serif" font-size="14.00">&lt;&lt;Abstract&gt;&gt;</text>
<text text-anchor="middle" x="893.71" y="-827.7" font-family="Times,serif" font-size="14.00">ERC20</text>
<polyline fill="none" stroke="black" points="663.71,-819.5 1123.71,-819.5 "/>
<text text-anchor="start" x="671.71" y="-802.9" font-family="Times,serif" font-size="14.00">Private:</text>
<text text-anchor="start" x="671.71" y="-786.1" font-family="Times,serif" font-size="14.00"> &#160;&#160;_balances: mapping(address=&gt;uint256)</text>
<text text-anchor="start" x="671.71" y="-769.3" font-family="Times,serif" font-size="14.00"> &#160;&#160;_allowances: mapping(address=&gt;mapping(address=&gt;uint256))</text>
<text text-anchor="start" x="671.71" y="-752.5" font-family="Times,serif" font-size="14.00"> &#160;&#160;_totalSupply: uint256</text>
<text text-anchor="start" x="671.71" y="-735.7" font-family="Times,serif" font-size="14.00"> &#160;&#160;_name: string</text>
<text text-anchor="start" x="671.71" y="-718.9" font-family="Times,serif" font-size="14.00"> &#160;&#160;_symbol: string</text>
<polyline fill="none" stroke="black" points="663.71,-710.7 1123.71,-710.7 "/>
<text text-anchor="start" x="671.71" y="-694.1" font-family="Times,serif" font-size="14.00">Internal:</text>
<text text-anchor="start" x="671.71" y="-677.3" font-family="Times,serif" font-size="14.00"> &#160;&#160;&#160;_transfer(from: address, to: address, value: uint256)</text>
<text text-anchor="start" x="671.71" y="-660.5" font-family="Times,serif" font-size="14.00"> &#160;&#160;&#160;_update(from: address, to: address, value: uint256)</text>
<text text-anchor="start" x="671.71" y="-643.7" font-family="Times,serif" font-size="14.00"> &#160;&#160;&#160;_mint(account: address, value: uint256)</text>
<text text-anchor="start" x="671.71" y="-626.9" font-family="Times,serif" font-size="14.00"> &#160;&#160;&#160;_burn(account: address, value: uint256)</text>
<text text-anchor="start" x="671.71" y="-610.1" font-family="Times,serif" font-size="14.00"> &#160;&#160;&#160;_approve(owner: address, spender: address, value: uint256)</text>
<text text-anchor="start" x="671.71" y="-593.3" font-family="Times,serif" font-size="14.00"> &#160;&#160;&#160;_approve(owner: address, spender: address, value: uint256, emitEvent: bool)</text>
<text text-anchor="start" x="671.71" y="-576.5" font-family="Times,serif" font-size="14.00"> &#160;&#160;&#160;_spendAllowance(owner: address, spender: address, value: uint256)</text>
<text text-anchor="start" x="671.71" y="-559.7" font-family="Times,serif" font-size="14.00">Public:</text>
<text text-anchor="start" x="671.71" y="-542.9" font-family="Times,serif" font-size="14.00"> &#160;&#160;&#160;constructor(name_: string, symbol_: string)</text>
<text text-anchor="start" x="671.71" y="-526.1" font-family="Times,serif" font-size="14.00"> &#160;&#160;&#160;name(): string</text>
<text text-anchor="start" x="671.71" y="-509.3" font-family="Times,serif" font-size="14.00"> &#160;&#160;&#160;symbol(): string</text>
<text text-anchor="start" x="671.71" y="-492.5" font-family="Times,serif" font-size="14.00"> &#160;&#160;&#160;decimals(): uint8</text>
<text text-anchor="start" x="671.71" y="-475.7" font-family="Times,serif" font-size="14.00"> &#160;&#160;&#160;totalSupply(): uint256</text>
<text text-anchor="start" x="671.71" y="-458.9" font-family="Times,serif" font-size="14.00"> &#160;&#160;&#160;balanceOf(account: address): uint256</text>
<text text-anchor="start" x="671.71" y="-442.1" font-family="Times,serif" font-size="14.00"> &#160;&#160;&#160;transfer(to: address, value: uint256): bool</text>
<text text-anchor="start" x="671.71" y="-425.3" font-family="Times,serif" font-size="14.00"> &#160;&#160;&#160;allowance(owner: address, spender: address): uint256</text>
<text text-anchor="start" x="671.71" y="-408.5" font-family="Times,serif" font-size="14.00"> &#160;&#160;&#160;approve(spender: address, value: uint256): bool</text>
<text text-anchor="start" x="671.71" y="-391.7" font-family="Times,serif" font-size="14.00"> &#160;&#160;&#160;transferFrom(from: address, to: address, value: uint256): bool</text>
</g>
<!-- 6&#45;&gt;0 -->
<g id="edge5" class="edge">
<title>6&#45;&gt;0</title>
<path fill="none" stroke="black" stroke-dasharray="5,2" d="M838.67,-861.46C834.81,-878.18 831.22,-893.7 828.11,-907.16"/>
<polygon fill="none" stroke="black" points="817.84,-904.99 821.31,-936.58 838.3,-909.72 817.84,-904.99"/>
</g>
<!-- 6&#45;&gt;3 -->
<g id="edge3" class="edge">
<title>6&#45;&gt;3</title>
<path fill="none" stroke="black" stroke-dasharray="5,2" d="M889.28,-861.14C892.71,-912.94 899.73,-967 912.71,-1016.4 913.5,-1019.41 914.36,-1022.43 915.28,-1025.45"/>
<polygon fill="none" stroke="black" points="905.41,-1029.05 925.43,-1053.74 925.18,-1021.95 905.41,-1029.05"/>
</g>
<!-- 6&#45;&gt;4 -->
<g id="edge4" class="edge">
<title>6&#45;&gt;4</title>
<path fill="none" stroke="black" stroke-dasharray="5,2" d="M959.47,-861.46C960.25,-864.29 961.02,-867.09 961.78,-869.84"/>
<polygon fill="none" stroke="black" points="951.71,-872.81 969.82,-898.94 971.95,-867.22 951.71,-872.81"/>
</g>
<!-- 6&#45;&gt;5 -->
<g id="edge2" class="edge">
<title>6&#45;&gt;5</title>
<path fill="none" stroke="black" d="M1094.56,-861.46C1098.71,-866.39 1102.78,-871.21 1106.74,-875.9"/>
<polygon fill="none" stroke="black" points="1098.8,-882.77 1126.16,-898.94 1114.85,-869.23 1098.8,-882.77"/>
</g>
<!-- 7 -->
<g id="node8" class="node">
<title>7</title>
<polygon fill="#f2f2f2" stroke="black" points="1337.29,-915.9 1337.29,-999.1 1614.13,-999.1 1614.13,-915.9 1337.29,-915.9"/>
<text text-anchor="middle" x="1475.71" y="-982.5" font-family="Times,serif" font-size="14.00">&lt;&lt;Interface&gt;&gt;</text>
<text text-anchor="middle" x="1475.71" y="-965.7" font-family="Times,serif" font-size="14.00">IERC165</text>
<polyline fill="none" stroke="black" points="1337.29,-957.5 1614.13,-957.5 "/>
<text text-anchor="start" x="1345.29" y="-940.9" font-family="Times,serif" font-size="14.00">External:</text>
<text text-anchor="start" x="1345.29" y="-924.1" font-family="Times,serif" font-size="14.00"> &#160;&#160;&#160;&#160;supportsInterface(interfaceId: bytes4): bool</text>
</g>
<!-- 8 -->
<g id="node9" class="node">
<title>8</title>
<polygon fill="#f2f2f2" stroke="black" points="1142.04,-580.7 1142.04,-663.9 1415.38,-663.9 1415.38,-580.7 1142.04,-580.7"/>
<text text-anchor="middle" x="1278.71" y="-647.3" font-family="Times,serif" font-size="14.00">&lt;&lt;Abstract&gt;&gt;</text>
<text text-anchor="middle" x="1278.71" y="-630.5" font-family="Times,serif" font-size="14.00">ERC165</text>
<polyline fill="none" stroke="black" points="1142.04,-622.3 1415.38,-622.3 "/>
<text text-anchor="start" x="1150.04" y="-605.7" font-family="Times,serif" font-size="14.00">Public:</text>
<text text-anchor="start" x="1150.04" y="-588.9" font-family="Times,serif" font-size="14.00"> &#160;&#160;&#160;supportsInterface(interfaceId: bytes4): bool</text>
</g>
<!-- 8&#45;&gt;7 -->
<g id="edge6" class="edge">
<title>8&#45;&gt;7</title>
<path fill="none" stroke="black" stroke-dasharray="5,2" d="M1302.87,-664.16C1336.11,-720.39 1396.38,-822.32 1436.23,-889.72"/>
<polygon fill="none" stroke="black" points="1427.36,-895.35 1451.66,-915.83 1445.43,-884.66 1427.36,-895.35"/>
</g>
<!-- 9 -->
<g id="node10" class="node">
<title>9</title>
<polygon fill="#f2f2f2" stroke="black" points="1730.4,-8.9 1730.4,-92.1 2265.02,-92.1 2265.02,-8.9 1730.4,-8.9"/>
<text text-anchor="middle" x="1997.71" y="-75.5" font-family="Times,serif" font-size="14.00">&lt;&lt;Interface&gt;&gt;</text>
<text text-anchor="middle" x="1997.71" y="-58.7" font-family="Times,serif" font-size="14.00">IERC1363Receiver</text>
<polyline fill="none" stroke="black" points="1730.4,-50.5 2265.02,-50.5 "/>
<text text-anchor="start" x="1738.4" y="-33.9" font-family="Times,serif" font-size="14.00">External:</text>
<text text-anchor="start" x="1738.4" y="-17.1" font-family="Times,serif" font-size="14.00"> &#160;&#160;&#160;&#160;onTransferReceived(operator: address, from: address, value: uint256, data: bytes): bytes4</text>
</g>
<!-- 10 -->
<g id="node11" class="node">
<title>10</title>
<polygon fill="#f2f2f2" stroke="black" points="2283.29,-8.9 2283.29,-92.1 2728.13,-92.1 2728.13,-8.9 2283.29,-8.9"/>
<text text-anchor="middle" x="2505.71" y="-75.5" font-family="Times,serif" font-size="14.00">&lt;&lt;Interface&gt;&gt;</text>
<text text-anchor="middle" x="2505.71" y="-58.7" font-family="Times,serif" font-size="14.00">IERC1363Spender</text>
<polyline fill="none" stroke="black" points="2283.29,-50.5 2728.13,-50.5 "/>
<text text-anchor="start" x="2291.29" y="-33.9" font-family="Times,serif" font-size="14.00">External:</text>
<text text-anchor="start" x="2291.29" y="-17.1" font-family="Times,serif" font-size="14.00"> &#160;&#160;&#160;&#160;onApprovalReceived(owner: address, value: uint256, data: bytes): bytes4</text>
</g>
<!-- 11 -->
<g id="node12" class="node">
<title>11</title>
<polygon fill="#f2f2f2" stroke="black" points="0,-572.3 0,-672.3 645.42,-672.3 645.42,-572.3 0,-572.3"/>
<text text-anchor="middle" x="322.71" y="-655.7" font-family="Times,serif" font-size="14.00">&lt;&lt;Library&gt;&gt;</text>
<text text-anchor="middle" x="322.71" y="-638.9" font-family="Times,serif" font-size="14.00">ERC1363Utils</text>
<polyline fill="none" stroke="black" points="0,-630.7 645.42,-630.7 "/>
<text text-anchor="start" x="8" y="-614.1" font-family="Times,serif" font-size="14.00">Internal:</text>
<text text-anchor="start" x="8" y="-597.3" font-family="Times,serif" font-size="14.00"> &#160;&#160;&#160;checkOnERC1363TransferReceived(operator: address, from: address, to: address, value: uint256, data: bytes)</text>
<text text-anchor="start" x="8" y="-580.5" font-family="Times,serif" font-size="14.00"> &#160;&#160;&#160;checkOnERC1363ApprovalReceived(operator: address, spender: address, value: uint256, data: bytes)</text>
</g>
<!-- 12 -->
<g id="node13" class="node">
<title>12</title>
<polygon fill="#f2f2f2" stroke="black" points="1433.59,-538.7 1433.59,-705.9 1927.83,-705.9 1927.83,-538.7 1433.59,-538.7"/>
<text text-anchor="middle" x="1680.71" y="-689.3" font-family="Times,serif" font-size="14.00">&lt;&lt;Interface&gt;&gt;</text>
<text text-anchor="middle" x="1680.71" y="-672.5" font-family="Times,serif" font-size="14.00">IERC1363</text>
<polyline fill="none" stroke="black" points="1433.59,-664.3 1927.83,-664.3 "/>
<text text-anchor="start" x="1441.59" y="-647.7" font-family="Times,serif" font-size="14.00">External:</text>
<text text-anchor="start" x="1441.59" y="-630.9" font-family="Times,serif" font-size="14.00"> &#160;&#160;&#160;&#160;transferAndCall(to: address, value: uint256): bool</text>
<text text-anchor="start" x="1441.59" y="-614.1" font-family="Times,serif" font-size="14.00"> &#160;&#160;&#160;&#160;transferAndCall(to: address, value: uint256, data: bytes): bool</text>
<text text-anchor="start" x="1441.59" y="-597.3" font-family="Times,serif" font-size="14.00"> &#160;&#160;&#160;&#160;transferFromAndCall(from: address, to: address, value: uint256): bool</text>
<text text-anchor="start" x="1441.59" y="-580.5" font-family="Times,serif" font-size="14.00"> &#160;&#160;&#160;&#160;transferFromAndCall(from: address, to: address, value: uint256, data: bytes): bool</text>
<text text-anchor="start" x="1441.59" y="-563.7" font-family="Times,serif" font-size="14.00"> &#160;&#160;&#160;&#160;approveAndCall(spender: address, value: uint256): bool</text>
<text text-anchor="start" x="1441.59" y="-546.9" font-family="Times,serif" font-size="14.00"> &#160;&#160;&#160;&#160;approveAndCall(spender: address, value: uint256, data: bytes): bool</text>
</g>
<!-- 12&#45;&gt;3 -->
<g id="edge7" class="edge">
<title>12&#45;&gt;3</title>
<path fill="none" stroke="black" stroke-dasharray="5,2" d="M1693.31,-706.13C1701.75,-794.54 1699.77,-933.1 1622.71,-1016.4 1569.25,-1074.19 1386.49,-1112.03 1230.37,-1134.56"/>
<polygon fill="none" stroke="black" points="1228.81,-1124.17 1200.55,-1138.73 1231.72,-1144.97 1228.81,-1124.17"/>
</g>
<!-- 12&#45;&gt;7 -->
<g id="edge8" class="edge">
<title>12&#45;&gt;7</title>
<path fill="none" stroke="black" stroke-dasharray="5,2" d="M1629.77,-706.09C1594.91,-762.75 1549.3,-836.89 1516.77,-889.77"/>
<polygon fill="none" stroke="black" points="1507.63,-884.58 1500.85,-915.63 1525.52,-895.58 1507.63,-884.58"/>
</g>
<!-- 13 -->
<g id="node14" class="node">
<title>13</title>
<polygon fill="#f2f2f2" stroke="black" points="1033.34,-138.5 1033.34,-322.5 1524.08,-322.5 1524.08,-138.5 1033.34,-138.5"/>
<text text-anchor="middle" x="1278.71" y="-305.9" font-family="Times,serif" font-size="14.00">&lt;&lt;Abstract&gt;&gt;</text>
<text text-anchor="middle" x="1278.71" y="-289.1" font-family="Times,serif" font-size="14.00">ERC1363</text>
<polyline fill="none" stroke="black" points="1033.34,-280.9 1524.08,-280.9 "/>
<text text-anchor="start" x="1041.34" y="-264.3" font-family="Times,serif" font-size="14.00">Public:</text>
<text text-anchor="start" x="1041.34" y="-247.5" font-family="Times,serif" font-size="14.00"> &#160;&#160;&#160;supportsInterface(interfaceId: bytes4): bool</text>
<text text-anchor="start" x="1041.34" y="-230.7" font-family="Times,serif" font-size="14.00"> &#160;&#160;&#160;transferAndCall(to: address, value: uint256): bool</text>
<text text-anchor="start" x="1041.34" y="-213.9" font-family="Times,serif" font-size="14.00"> &#160;&#160;&#160;transferAndCall(to: address, value: uint256, data: bytes): bool</text>
<text text-anchor="start" x="1041.34" y="-197.1" font-family="Times,serif" font-size="14.00"> &#160;&#160;&#160;transferFromAndCall(from: address, to: address, value: uint256): bool</text>
<text text-anchor="start" x="1041.34" y="-180.3" font-family="Times,serif" font-size="14.00"> &#160;&#160;&#160;transferFromAndCall(from: address, to: address, value: uint256, data: bytes): bool</text>
<text text-anchor="start" x="1041.34" y="-163.5" font-family="Times,serif" font-size="14.00"> &#160;&#160;&#160;approveAndCall(spender: address, value: uint256): bool</text>
<text text-anchor="start" x="1041.34" y="-146.7" font-family="Times,serif" font-size="14.00"> &#160;&#160;&#160;approveAndCall(spender: address, value: uint256, data: bytes): bool</text>
</g>
<!-- 13&#45;&gt;6 -->
<g id="edge9" class="edge">
<title>13&#45;&gt;6</title>
<path fill="none" stroke="black" d="M1188.44,-322.89C1174.85,-336.66 1160.29,-351.4 1145.2,-366.68"/>
<polygon fill="none" stroke="black" points="1137.55,-359.48 1123.94,-388.2 1152.49,-374.23 1137.55,-359.48"/>
</g>
<!-- 13&#45;&gt;8 -->
<g id="edge10" class="edge">
<title>13&#45;&gt;8</title>
<path fill="none" stroke="black" d="M1278.71,-322.89C1278.71,-392.35 1278.71,-486.53 1278.71,-550.37"/>
<polygon fill="none" stroke="black" points="1268.21,-550.7 1278.71,-580.7 1289.21,-550.7 1268.21,-550.7"/>
</g>
<!-- 13&#45;&gt;11 -->
<g id="edge12" class="edge">
<title>13&#45;&gt;11</title>
<path fill="none" stroke="black" stroke-dasharray="5,2" d="M1033.31,-268.49C915.28,-291.87 773.88,-328.29 654.71,-383 551.91,-430.19 448.38,-511.03 384.91,-565.3"/>
<polygon fill="black" stroke="black" points="382.29,-562.94 376.99,-572.11 386.85,-568.25 382.29,-562.94"/>
<text text-anchor="start" x="752.71" y="-356" font-family="Times,serif" font-size="10.00">checkOnERC1363ApprovalReceived</text>
<text text-anchor="start" x="752.71" y="-344" font-family="Times,serif" font-size="10.00">checkOnERC1363TransferReceived</text>
</g>
<!-- 13&#45;&gt;12 -->
<g id="edge11" class="edge">
<title>13&#45;&gt;12</title>
<path fill="none" stroke="black" stroke-dasharray="5,2" d="M1372.71,-322.64C1432.87,-380.98 1511.09,-456.83 1573.65,-517.49"/>
<polygon fill="none" stroke="black" points="1566.65,-525.33 1595.5,-538.67 1581.27,-510.25 1566.65,-525.33"/>
</g>
<!-- 14 -->
<g id="node15" class="node">
<title>14</title>
<polygon fill="#f2f2f2" stroke="black" points="1095.17,-0.5 1095.17,-100.5 1462.25,-100.5 1462.25,-0.5 1095.17,-0.5"/>
<text text-anchor="middle" x="1278.71" y="-83.9" font-family="Times,serif" font-size="14.00">&lt;&lt;Abstract&gt;&gt;</text>
<text text-anchor="middle" x="1278.71" y="-67.1" font-family="Times,serif" font-size="14.00">ERC1363Mintable</text>
<polyline fill="none" stroke="black" points="1095.17,-58.9 1462.25,-58.9 "/>
<text text-anchor="start" x="1103.17" y="-42.3" font-family="Times,serif" font-size="14.00">Internal:</text>
<text text-anchor="start" x="1103.17" y="-25.5" font-family="Times,serif" font-size="14.00"> &#160;&#160;&#160;_mintAndCall(account: address, value: uint256)</text>
<text text-anchor="start" x="1103.17" y="-8.7" font-family="Times,serif" font-size="14.00"> &#160;&#160;&#160;_mintAndCall(account: address, value: uint256, data: bytes)</text>
</g>
<!-- 14&#45;&gt;11 -->
<g id="edge14" class="edge">
<title>14&#45;&gt;11</title>
<path fill="none" stroke="black" stroke-dasharray="5,2" d="M1094.98,-71.41C1024.66,-84.04 945.37,-104.59 878.65,-138 660.49,-247.25 458.74,-462.08 370.1,-564.45"/>
<polygon fill="black" stroke="black" points="367.28,-562.36 363.4,-572.22 372.58,-566.93 367.28,-562.36"/>
<text text-anchor="start" x="877.71" y="-227.5" font-family="Times,serif" font-size="10.00">checkOnERC1363TransferReceived</text>
</g>
<!-- 14&#45;&gt;13 -->
<g id="edge13" class="edge">
<title>14&#45;&gt;13</title>
<path fill="none" stroke="black" d="M1278.71,-100.61C1278.71,-103.08 1278.71,-105.61 1278.71,-108.18"/>
<polygon fill="none" stroke="black" points="1268.21,-108.2 1278.71,-138.2 1289.21,-108.2 1268.21,-108.2"/>
</g>
</g>
</svg>
