<?xml version="1.0" encoding="UTF-8" standalone="no"?>
<!DOCTYPE svg PUBLIC "-//W3C//DTD SVG 1.1//EN"
 "http://www.w3.org/Graphics/SVG/1.1/DTD/svg11.dtd">
<!-- Generated by graphviz version 5.0.0 (20220707.1540)
 -->
<!-- Title: UmlClassDiagram Pages: 1 -->
<svg width="1925pt" height="1183pt"
 viewBox="0.00 0.00 1924.56 1183.20" xmlns="http://www.w3.org/2000/svg" xmlns:xlink="http://www.w3.org/1999/xlink">
<g id="graph0" class="graph" transform="scale(1 1) rotate(0) translate(4 1179.2)">
<title>UmlClassDiagram</title>
<polygon fill="white" stroke="transparent" points="-4,4 -4,-1179.2 1920.56,-1179.2 1920.56,4 -4,4"/>
<!-- 0 -->
<g id="node1" class="node">
<title>0</title>
<polygon fill="#f2f2f2" stroke="black" points="42.85,-957.1 42.85,-1174.7 472.21,-1174.7 472.21,-957.1 42.85,-957.1"/>
<text text-anchor="middle" x="257.53" y="-1158.1" font-family="Times,serif" font-size="14.00">&lt;&lt;Interface&gt;&gt;</text>
<text text-anchor="middle" x="257.53" y="-1141.3" font-family="Times,serif" font-size="14.00">IERC20</text>
<polyline fill="none" stroke="black" points="42.85,-1133.1 472.21,-1133.1 "/>
<text text-anchor="start" x="50.85" y="-1116.5" font-family="Times,serif" font-size="14.00">External:</text>
<text text-anchor="start" x="50.85" y="-1099.7" font-family="Times,serif" font-size="14.00"> &#160;&#160;&#160;&#160;totalSupply(): uint256</text>
<text text-anchor="start" x="50.85" y="-1082.9" font-family="Times,serif" font-size="14.00"> &#160;&#160;&#160;&#160;balanceOf(account: address): uint256</text>
<text text-anchor="start" x="50.85" y="-1066.1" font-family="Times,serif" font-size="14.00"> &#160;&#160;&#160;&#160;transfer(to: address, amount: uint256): bool</text>
<text text-anchor="start" x="50.85" y="-1049.3" font-family="Times,serif" font-size="14.00"> &#160;&#160;&#160;&#160;allowance(owner: address, spender: address): uint256</text>
<text text-anchor="start" x="50.85" y="-1032.5" font-family="Times,serif" font-size="14.00"> &#160;&#160;&#160;&#160;approve(spender: address, amount: uint256): bool</text>
<text text-anchor="start" x="50.85" y="-1015.7" font-family="Times,serif" font-size="14.00"> &#160;&#160;&#160;&#160;transferFrom(from: address, to: address, amount: uint256): bool</text>
<text text-anchor="start" x="50.85" y="-998.9" font-family="Times,serif" font-size="14.00">Public:</text>
<text text-anchor="start" x="50.85" y="-982.1" font-family="Times,serif" font-size="14.00"> &#160;&#160;&#160;&lt;&lt;event&gt;&gt; Transfer(from: address, to: address, value: uint256)</text>
<text text-anchor="start" x="50.85" y="-965.3" font-family="Times,serif" font-size="14.00"> &#160;&#160;&#160;&lt;&lt;event&gt;&gt; Approval(owner: address, spender: address, value: uint256)</text>
</g>
<!-- 1 -->
<g id="node2" class="node">
<title>1</title>
<polygon fill="#f2f2f2" stroke="black" points="193.16,-803.3 193.16,-920.1 321.91,-920.1 321.91,-803.3 193.16,-803.3"/>
<text text-anchor="middle" x="257.53" y="-903.5" font-family="Times,serif" font-size="14.00">&lt;&lt;Interface&gt;&gt;</text>
<text text-anchor="middle" x="257.53" y="-886.7" font-family="Times,serif" font-size="14.00">IERC20Metadata</text>
<polyline fill="none" stroke="black" points="193.16,-878.5 321.91,-878.5 "/>
<text text-anchor="start" x="201.16" y="-861.9" font-family="Times,serif" font-size="14.00">External:</text>
<text text-anchor="start" x="201.16" y="-845.1" font-family="Times,serif" font-size="14.00"> &#160;&#160;&#160;&#160;name(): string</text>
<text text-anchor="start" x="201.16" y="-828.3" font-family="Times,serif" font-size="14.00"> &#160;&#160;&#160;&#160;symbol(): string</text>
<text text-anchor="start" x="201.16" y="-811.5" font-family="Times,serif" font-size="14.00"> &#160;&#160;&#160;&#160;decimals(): uint8</text>
</g>
<!-- 1&#45;&gt;0 -->
<g id="edge1" class="edge">
<title>1&#45;&gt;0</title>
<path fill="none" stroke="black" stroke-dasharray="5,2" d="M257.53,-920.1C257.53,-922.27 257.53,-924.47 257.53,-926.7"/>
<polygon fill="none" stroke="black" points="247.03,-926.81 257.53,-956.81 268.03,-926.81 247.03,-926.81"/>
</g>
<!-- 2 -->
<g id="node3" class="node">
<title>2</title>
<polygon fill="#f2f2f2" stroke="black" points="339.58,-811.7 339.58,-911.7 497.49,-911.7 497.49,-811.7 339.58,-811.7"/>
<text text-anchor="middle" x="418.53" y="-895.1" font-family="Times,serif" font-size="14.00">&lt;&lt;Abstract&gt;&gt;</text>
<text text-anchor="middle" x="418.53" y="-878.3" font-family="Times,serif" font-size="14.00">Context</text>
<polyline fill="none" stroke="black" points="339.58,-870.1 497.49,-870.1 "/>
<text text-anchor="start" x="347.58" y="-853.5" font-family="Times,serif" font-size="14.00">Internal:</text>
<text text-anchor="start" x="347.58" y="-836.7" font-family="Times,serif" font-size="14.00"> &#160;&#160;&#160;_msgSender(): address</text>
<text text-anchor="start" x="347.58" y="-819.9" font-family="Times,serif" font-size="14.00"> &#160;&#160;&#160;_msgData(): bytes</text>
</g>
<!-- 3 -->
<g id="node4" class="node">
<title>3</title>
<polygon fill="#f2f2f2" stroke="black" points="0,-271.9 0,-766.3 423.07,-766.3 423.07,-271.9 0,-271.9"/>
<text text-anchor="middle" x="211.53" y="-749.7" font-family="Times,serif" font-size="14.00">ERC20</text>
<polyline fill="none" stroke="black" points="0,-741.5 423.07,-741.5 "/>
<text text-anchor="start" x="8" y="-724.9" font-family="Times,serif" font-size="14.00">Private:</text>
<text text-anchor="start" x="8" y="-708.1" font-family="Times,serif" font-size="14.00"> &#160;&#160;_balances: mapping(address=&gt;uint256)</text>
<text text-anchor="start" x="8" y="-691.3" font-family="Times,serif" font-size="14.00"> &#160;&#160;_allowances: mapping(address=&gt;mapping(address=&gt;uint256))</text>
<text text-anchor="start" x="8" y="-674.5" font-family="Times,serif" font-size="14.00"> &#160;&#160;_totalSupply: uint256</text>
<text text-anchor="start" x="8" y="-657.7" font-family="Times,serif" font-size="14.00"> &#160;&#160;_name: string</text>
<text text-anchor="start" x="8" y="-640.9" font-family="Times,serif" font-size="14.00"> &#160;&#160;_symbol: string</text>
<polyline fill="none" stroke="black" points="0,-632.7 423.07,-632.7 "/>
<text text-anchor="start" x="8" y="-616.1" font-family="Times,serif" font-size="14.00">Internal:</text>
<text text-anchor="start" x="8" y="-599.3" font-family="Times,serif" font-size="14.00"> &#160;&#160;&#160;_transfer(from: address, to: address, amount: uint256)</text>
<text text-anchor="start" x="8" y="-582.5" font-family="Times,serif" font-size="14.00"> &#160;&#160;&#160;_mint(account: address, amount: uint256)</text>
<text text-anchor="start" x="8" y="-565.7" font-family="Times,serif" font-size="14.00"> &#160;&#160;&#160;_burn(account: address, amount: uint256)</text>
<text text-anchor="start" x="8" y="-548.9" font-family="Times,serif" font-size="14.00"> &#160;&#160;&#160;_approve(owner: address, spender: address, amount: uint256)</text>
<text text-anchor="start" x="8" y="-532.1" font-family="Times,serif" font-size="14.00"> &#160;&#160;&#160;_spendAllowance(owner: address, spender: address, amount: uint256)</text>
<text text-anchor="start" x="8" y="-515.3" font-family="Times,serif" font-size="14.00"> &#160;&#160;&#160;_beforeTokenTransfer(from: address, to: address, amount: uint256)</text>
<text text-anchor="start" x="8" y="-498.5" font-family="Times,serif" font-size="14.00"> &#160;&#160;&#160;_afterTokenTransfer(from: address, to: address, amount: uint256)</text>
<text text-anchor="start" x="8" y="-481.7" font-family="Times,serif" font-size="14.00">Public:</text>
<text text-anchor="start" x="8" y="-464.9" font-family="Times,serif" font-size="14.00"> &#160;&#160;&#160;constructor(name_: string, symbol_: string)</text>
<text text-anchor="start" x="8" y="-448.1" font-family="Times,serif" font-size="14.00"> &#160;&#160;&#160;name(): string</text>
<text text-anchor="start" x="8" y="-431.3" font-family="Times,serif" font-size="14.00"> &#160;&#160;&#160;symbol(): string</text>
<text text-anchor="start" x="8" y="-414.5" font-family="Times,serif" font-size="14.00"> &#160;&#160;&#160;decimals(): uint8</text>
<text text-anchor="start" x="8" y="-397.7" font-family="Times,serif" font-size="14.00"> &#160;&#160;&#160;totalSupply(): uint256</text>
<text text-anchor="start" x="8" y="-380.9" font-family="Times,serif" font-size="14.00"> &#160;&#160;&#160;balanceOf(account: address): uint256</text>
<text text-anchor="start" x="8" y="-364.1" font-family="Times,serif" font-size="14.00"> &#160;&#160;&#160;transfer(to: address, amount: uint256): bool</text>
<text text-anchor="start" x="8" y="-347.3" font-family="Times,serif" font-size="14.00"> &#160;&#160;&#160;allowance(owner: address, spender: address): uint256</text>
<text text-anchor="start" x="8" y="-330.5" font-family="Times,serif" font-size="14.00"> &#160;&#160;&#160;approve(spender: address, amount: uint256): bool</text>
<text text-anchor="start" x="8" y="-313.7" font-family="Times,serif" font-size="14.00"> &#160;&#160;&#160;transferFrom(from: address, to: address, amount: uint256): bool</text>
<text text-anchor="start" x="8" y="-296.9" font-family="Times,serif" font-size="14.00"> &#160;&#160;&#160;increaseAllowance(spender: address, addedValue: uint256): bool</text>
<text text-anchor="start" x="8" y="-280.1" font-family="Times,serif" font-size="14.00"> &#160;&#160;&#160;decreaseAllowance(spender: address, subtractedValue: uint256): bool</text>
</g>
<!-- 3&#45;&gt;0 -->
<g id="edge3" class="edge">
<title>3&#45;&gt;0</title>
<path fill="none" stroke="black" stroke-dasharray="5,2" d="M171.74,-766.41C169.88,-817.84 172.79,-871.37 184.53,-920.6 185.17,-923.26 185.86,-925.92 186.6,-928.59"/>
<polygon fill="none" stroke="black" points="176.69,-932.05 196.32,-957.05 196.56,-925.27 176.69,-932.05"/>
</g>
<!-- 3&#45;&gt;1 -->
<g id="edge4" class="edge">
<title>3&#45;&gt;1</title>
<path fill="none" stroke="black" stroke-dasharray="5,2" d="M244.84,-766.73C245.13,-768.86 245.42,-770.97 245.7,-773.07"/>
<polygon fill="none" stroke="black" points="235.33,-774.76 249.75,-803.09 256.14,-771.95 235.33,-774.76"/>
</g>
<!-- 3&#45;&gt;2 -->
<g id="edge2" class="edge">
<title>3&#45;&gt;2</title>
<path fill="none" stroke="black" d="M361.42,-766.73C365.4,-773.28 369.27,-779.64 372.98,-785.75"/>
<polygon fill="none" stroke="black" points="364.15,-791.44 388.71,-811.63 382.1,-780.54 364.15,-791.44"/>
</g>
<!-- 4 -->
<g id="node5" class="node">
<title>4</title>
<polygon fill="#f2f2f2" stroke="black" points="598.11,-820.1 598.11,-903.3 874.96,-903.3 874.96,-820.1 598.11,-820.1"/>
<text text-anchor="middle" x="736.53" y="-886.7" font-family="Times,serif" font-size="14.00">&lt;&lt;Interface&gt;&gt;</text>
<text text-anchor="middle" x="736.53" y="-869.9" font-family="Times,serif" font-size="14.00">IERC165</text>
<polyline fill="none" stroke="black" points="598.11,-861.7 874.96,-861.7 "/>
<text text-anchor="start" x="606.11" y="-845.1" font-family="Times,serif" font-size="14.00">External:</text>
<text text-anchor="start" x="606.11" y="-828.3" font-family="Times,serif" font-size="14.00"> &#160;&#160;&#160;&#160;supportsInterface(interfaceId: bytes4): bool</text>
</g>
<!-- 5 -->
<g id="node6" class="node">
<title>5</title>
<polygon fill="#f2f2f2" stroke="black" points="440.86,-477.5 440.86,-560.7 714.21,-560.7 714.21,-477.5 440.86,-477.5"/>
<text text-anchor="middle" x="577.53" y="-544.1" font-family="Times,serif" font-size="14.00">&lt;&lt;Abstract&gt;&gt;</text>
<text text-anchor="middle" x="577.53" y="-527.3" font-family="Times,serif" font-size="14.00">ERC165</text>
<polyline fill="none" stroke="black" points="440.86,-519.1 714.21,-519.1 "/>
<text text-anchor="start" x="448.86" y="-502.5" font-family="Times,serif" font-size="14.00">Public:</text>
<text text-anchor="start" x="448.86" y="-485.7" font-family="Times,serif" font-size="14.00"> &#160;&#160;&#160;supportsInterface(interfaceId: bytes4): bool</text>
</g>
<!-- 5&#45;&gt;4 -->
<g id="edge5" class="edge">
<title>5&#45;&gt;4</title>
<path fill="none" stroke="black" stroke-dasharray="5,2" d="M596.55,-560.85C623.31,-618.17 672.41,-723.34 704.76,-792.65"/>
<polygon fill="none" stroke="black" points="695.29,-797.16 717.49,-819.91 714.31,-788.28 695.29,-797.16"/>
</g>
<!-- 6 -->
<g id="node7" class="node">
<title>6</title>
<polygon fill="#f2f2f2" stroke="black" points="732.58,-435.5 732.58,-602.7 1238.49,-602.7 1238.49,-435.5 732.58,-435.5"/>
<text text-anchor="middle" x="985.53" y="-586.1" font-family="Times,serif" font-size="14.00">&lt;&lt;Interface&gt;&gt;</text>
<text text-anchor="middle" x="985.53" y="-569.3" font-family="Times,serif" font-size="14.00">IERC1363</text>
<polyline fill="none" stroke="black" points="732.58,-561.1 1238.49,-561.1 "/>
<text text-anchor="start" x="740.58" y="-544.5" font-family="Times,serif" font-size="14.00">External:</text>
<text text-anchor="start" x="740.58" y="-527.7" font-family="Times,serif" font-size="14.00"> &#160;&#160;&#160;&#160;transferAndCall(to: address, amount: uint256): bool</text>
<text text-anchor="start" x="740.58" y="-510.9" font-family="Times,serif" font-size="14.00"> &#160;&#160;&#160;&#160;transferAndCall(to: address, amount: uint256, data: bytes): bool</text>
<text text-anchor="start" x="740.58" y="-494.1" font-family="Times,serif" font-size="14.00"> &#160;&#160;&#160;&#160;transferFromAndCall(from: address, to: address, amount: uint256): bool</text>
<text text-anchor="start" x="740.58" y="-477.3" font-family="Times,serif" font-size="14.00"> &#160;&#160;&#160;&#160;transferFromAndCall(from: address, to: address, amount: uint256, data: bytes): bool</text>
<text text-anchor="start" x="740.58" y="-460.5" font-family="Times,serif" font-size="14.00"> &#160;&#160;&#160;&#160;approveAndCall(spender: address, amount: uint256): bool</text>
<text text-anchor="start" x="740.58" y="-443.7" font-family="Times,serif" font-size="14.00"> &#160;&#160;&#160;&#160;approveAndCall(spender: address, amount: uint256, data: bytes): bool</text>
</g>
<!-- 6&#45;&gt;0 -->
<g id="edge6" class="edge">
<title>6&#45;&gt;0</title>
<path fill="none" stroke="black" stroke-dasharray="5,2" d="M988.16,-602.93C986.31,-693.66 968.71,-837.35 883.53,-920.6 828.9,-974 653.48,-1011.57 502.19,-1034.96"/>
<polygon fill="none" stroke="black" points="500.4,-1024.61 472.29,-1039.45 503.52,-1045.38 500.4,-1024.61"/>
</g>
<!-- 6&#45;&gt;4 -->
<g id="edge7" class="edge">
<title>6&#45;&gt;4</title>
<path fill="none" stroke="black" stroke-dasharray="5,2" d="M924.94,-602.98C881.67,-662.18 824.26,-740.7 784.23,-795.45"/>
<polygon fill="none" stroke="black" points="775.61,-789.45 766.39,-819.87 792.57,-801.84 775.61,-789.45"/>
</g>
<!-- 7 -->
<g id="node8" class="node">
<title>7</title>
<polygon fill="#f2f2f2" stroke="black" points="888.28,-76.1 888.28,-159.3 1440.79,-159.3 1440.79,-76.1 888.28,-76.1"/>
<text text-anchor="middle" x="1164.53" y="-142.7" font-family="Times,serif" font-size="14.00">&lt;&lt;Interface&gt;&gt;</text>
<text text-anchor="middle" x="1164.53" y="-125.9" font-family="Times,serif" font-size="14.00">IERC1363Receiver</text>
<polyline fill="none" stroke="black" points="888.28,-117.7 1440.79,-117.7 "/>
<text text-anchor="start" x="896.28" y="-101.1" font-family="Times,serif" font-size="14.00">External:</text>
<text text-anchor="start" x="896.28" y="-84.3" font-family="Times,serif" font-size="14.00"> &#160;&#160;&#160;&#160;onTransferReceived(spender: address, sender: address, amount: uint256, data: bytes): bytes4</text>
</g>
<!-- 8 -->
<g id="node9" class="node">
<title>8</title>
<polygon fill="#f2f2f2" stroke="black" points="1458.5,-76.1 1458.5,-159.3 1916.56,-159.3 1916.56,-76.1 1458.5,-76.1"/>
<text text-anchor="middle" x="1687.53" y="-142.7" font-family="Times,serif" font-size="14.00">&lt;&lt;Interface&gt;&gt;</text>
<text text-anchor="middle" x="1687.53" y="-125.9" font-family="Times,serif" font-size="14.00">IERC1363Spender</text>
<polyline fill="none" stroke="black" points="1458.5,-117.7 1916.56,-117.7 "/>
<text text-anchor="start" x="1466.5" y="-101.1" font-family="Times,serif" font-size="14.00">External:</text>
<text text-anchor="start" x="1466.5" y="-84.3" font-family="Times,serif" font-size="14.00"> &#160;&#160;&#160;&#160;onApprovalReceived(sender: address, amount: uint256, data: bytes): bytes4</text>
</g>
<!-- 9 -->
<g id="node10" class="node">
<title>9</title>
<polygon fill="#f2f2f2" stroke="black" points="284.77,-0.5 284.77,-234.9 870.3,-234.9 870.3,-0.5 284.77,-0.5"/>
<text text-anchor="middle" x="577.53" y="-218.3" font-family="Times,serif" font-size="14.00">&lt;&lt;Abstract&gt;&gt;</text>
<text text-anchor="middle" x="577.53" y="-201.5" font-family="Times,serif" font-size="14.00">ERC1363</text>
<polyline fill="none" stroke="black" points="284.77,-193.3 870.3,-193.3 "/>
<text text-anchor="start" x="292.77" y="-176.7" font-family="Times,serif" font-size="14.00">Internal:</text>
<text text-anchor="start" x="292.77" y="-159.9" font-family="Times,serif" font-size="14.00"> &#160;&#160;&#160;_checkOnTransferReceived(sender: address, recipient: address, amount: uint256, data: bytes): bool</text>
<text text-anchor="start" x="292.77" y="-143.1" font-family="Times,serif" font-size="14.00"> &#160;&#160;&#160;_checkOnApprovalReceived(spender: address, amount: uint256, data: bytes): bool</text>
<text text-anchor="start" x="292.77" y="-126.3" font-family="Times,serif" font-size="14.00">Public:</text>
<text text-anchor="start" x="292.77" y="-109.5" font-family="Times,serif" font-size="14.00"> &#160;&#160;&#160;supportsInterface(interfaceId: bytes4): bool</text>
<text text-anchor="start" x="292.77" y="-92.7" font-family="Times,serif" font-size="14.00"> &#160;&#160;&#160;transferAndCall(to: address, amount: uint256): bool</text>
<text text-anchor="start" x="292.77" y="-75.9" font-family="Times,serif" font-size="14.00"> &#160;&#160;&#160;transferAndCall(to: address, amount: uint256, data: bytes): bool</text>
<text text-anchor="start" x="292.77" y="-59.1" font-family="Times,serif" font-size="14.00"> &#160;&#160;&#160;transferFromAndCall(from: address, to: address, amount: uint256): bool</text>
<text text-anchor="start" x="292.77" y="-42.3" font-family="Times,serif" font-size="14.00"> &#160;&#160;&#160;transferFromAndCall(from: address, to: address, amount: uint256, data: bytes): bool</text>
<text text-anchor="start" x="292.77" y="-25.5" font-family="Times,serif" font-size="14.00"> &#160;&#160;&#160;approveAndCall(spender: address, amount: uint256): bool</text>
<text text-anchor="start" x="292.77" y="-8.7" font-family="Times,serif" font-size="14.00"> &#160;&#160;&#160;approveAndCall(spender: address, amount: uint256, data: bytes): bool</text>
</g>
<!-- 9&#45;&gt;3 -->
<g id="edge8" class="edge">
<title>9&#45;&gt;3</title>
<path fill="none" stroke="black" d="M465.51,-235.02C458.76,-242.19 452.01,-249.38 443.73,-258.28"/>
<polygon fill="none" stroke="black" points="435.99,-251.17 423.31,-280.32 451.4,-265.44 435.99,-251.17"/>
</g>
<!-- 9&#45;&gt;5 -->
<g id="edge10" class="edge">
<title>9&#45;&gt;5</title>
<path fill="none" stroke="black" d="M577.53,-235.03C577.53,-303.65 577.53,-388.29 577.53,-447.05"/>
<polygon fill="none" stroke="black" points="567.03,-447.16 577.53,-477.16 588.03,-447.16 567.03,-447.16"/>
</g>
<!-- 9&#45;&gt;6 -->
<g id="edge9" class="edge">
<title>9&#45;&gt;6</title>
<path fill="none" stroke="black" stroke-dasharray="5,2" d="M696.37,-235.03C754.2,-291.65 823.17,-359.16 879.25,-414.06"/>
<polygon fill="none" stroke="black" points="872.06,-421.71 900.84,-435.19 886.75,-406.7 872.06,-421.71"/>
</g>
</g>
</svg>
