<?xml version="1.0" encoding="UTF-8" standalone="no"?>
<!DOCTYPE svg PUBLIC "-//W3C//DTD SVG 1.1//EN"
 "http://www.w3.org/Graphics/SVG/1.1/DTD/svg11.dtd">
<!-- Generated by graphviz version 5.0.0 (20220707.1540)
 -->
<!-- Title: UmlClassDiagram Pages: 1 -->
<svg width="2134pt" height="1116pt"
 viewBox="0.00 0.00 2134.41 1116.00" xmlns="http://www.w3.org/2000/svg" xmlns:xlink="http://www.w3.org/1999/xlink">
<g id="graph0" class="graph" transform="scale(1 1) rotate(0) translate(4 1112)">
<title>UmlClassDiagram</title>
<polygon fill="white" stroke="transparent" points="-4,4 -4,-1112 2130.41,-1112 2130.41,4 -4,4"/>
<!-- 0 -->
<g id="node1" class="node">
<title>0</title>
<polygon fill="#f2f2f2" stroke="black" points="104.34,-773.7 104.34,-815.3 201.65,-815.3 201.65,-773.7 104.34,-773.7"/>
<text text-anchor="middle" x="153" y="-798.7" font-family="Times,serif" font-size="14.00">&lt;&lt;Interface&gt;&gt;</text>
<text text-anchor="middle" x="153" y="-781.9" font-family="Times,serif" font-size="14.00">IERC20Errors</text>
</g>
<!-- 1 -->
<g id="node2" class="node">
<title>1</title>
<polygon fill="#f2f2f2" stroke="black" points="878.06,-71.7 878.06,-113.3 981.94,-113.3 981.94,-71.7 878.06,-71.7"/>
<text text-anchor="middle" x="930" y="-96.7" font-family="Times,serif" font-size="14.00">&lt;&lt;Interface&gt;&gt;</text>
<text text-anchor="middle" x="930" y="-79.9" font-family="Times,serif" font-size="14.00">IERC721Errors</text>
</g>
<!-- 2 -->
<g id="node3" class="node">
<title>2</title>
<polygon fill="#f2f2f2" stroke="black" points="999.56,-71.7 999.56,-113.3 1110.44,-113.3 1110.44,-71.7 999.56,-71.7"/>
<text text-anchor="middle" x="1055" y="-96.7" font-family="Times,serif" font-size="14.00">&lt;&lt;Interface&gt;&gt;</text>
<text text-anchor="middle" x="1055" y="-79.9" font-family="Times,serif" font-size="14.00">IERC1155Errors</text>
</g>
<!-- 3 -->
<g id="node4" class="node">
<title>3</title>
<polygon fill="#f2f2f2" stroke="black" points="107.32,-889.9 107.32,-1107.5 536.68,-1107.5 536.68,-889.9 107.32,-889.9"/>
<text text-anchor="middle" x="322" y="-1090.9" font-family="Times,serif" font-size="14.00">&lt;&lt;Interface&gt;&gt;</text>
<text text-anchor="middle" x="322" y="-1074.1" font-family="Times,serif" font-size="14.00">IERC20</text>
<polyline fill="none" stroke="black" points="107.32,-1065.9 536.68,-1065.9 "/>
<text text-anchor="start" x="115.32" y="-1049.3" font-family="Times,serif" font-size="14.00">External:</text>
<text text-anchor="start" x="115.32" y="-1032.5" font-family="Times,serif" font-size="14.00"> &#160;&#160;&#160;&#160;totalSupply(): uint256</text>
<text text-anchor="start" x="115.32" y="-1015.7" font-family="Times,serif" font-size="14.00"> &#160;&#160;&#160;&#160;balanceOf(account: address): uint256</text>
<text text-anchor="start" x="115.32" y="-998.9" font-family="Times,serif" font-size="14.00"> &#160;&#160;&#160;&#160;transfer(to: address, value: uint256): bool</text>
<text text-anchor="start" x="115.32" y="-982.1" font-family="Times,serif" font-size="14.00"> &#160;&#160;&#160;&#160;allowance(owner: address, spender: address): uint256</text>
<text text-anchor="start" x="115.32" y="-965.3" font-family="Times,serif" font-size="14.00"> &#160;&#160;&#160;&#160;approve(spender: address, value: uint256): bool</text>
<text text-anchor="start" x="115.32" y="-948.5" font-family="Times,serif" font-size="14.00"> &#160;&#160;&#160;&#160;transferFrom(from: address, to: address, value: uint256): bool</text>
<text text-anchor="start" x="115.32" y="-931.7" font-family="Times,serif" font-size="14.00">Public:</text>
<text text-anchor="start" x="115.32" y="-914.9" font-family="Times,serif" font-size="14.00"> &#160;&#160;&#160;&lt;&lt;event&gt;&gt; Transfer(from: address, to: address, value: uint256)</text>
<text text-anchor="start" x="115.32" y="-898.1" font-family="Times,serif" font-size="14.00"> &#160;&#160;&#160;&lt;&lt;event&gt;&gt; Approval(owner: address, spender: address, value: uint256)</text>
</g>
<!-- 4 -->
<g id="node5" class="node">
<title>4</title>
<polygon fill="#f2f2f2" stroke="black" points="257.62,-736.1 257.62,-852.9 386.37,-852.9 386.37,-736.1 257.62,-736.1"/>
<text text-anchor="middle" x="322" y="-836.3" font-family="Times,serif" font-size="14.00">&lt;&lt;Interface&gt;&gt;</text>
<text text-anchor="middle" x="322" y="-819.5" font-family="Times,serif" font-size="14.00">IERC20Metadata</text>
<polyline fill="none" stroke="black" points="257.62,-811.3 386.37,-811.3 "/>
<text text-anchor="start" x="265.62" y="-794.7" font-family="Times,serif" font-size="14.00">External:</text>
<text text-anchor="start" x="265.62" y="-777.9" font-family="Times,serif" font-size="14.00"> &#160;&#160;&#160;&#160;name(): string</text>
<text text-anchor="start" x="265.62" y="-761.1" font-family="Times,serif" font-size="14.00"> &#160;&#160;&#160;&#160;symbol(): string</text>
<text text-anchor="start" x="265.62" y="-744.3" font-family="Times,serif" font-size="14.00"> &#160;&#160;&#160;&#160;decimals(): uint8</text>
</g>
<!-- 4&#45;&gt;3 -->
<g id="edge1" class="edge">
<title>4&#45;&gt;3</title>
<path fill="none" stroke="black" stroke-dasharray="5,2" d="M322,-852.9C322,-855.07 322,-857.27 322,-859.5"/>
<polygon fill="none" stroke="black" points="311.5,-859.61 322,-889.61 332.5,-859.61 311.5,-859.61"/>
</g>
<!-- 5 -->
<g id="node6" class="node">
<title>5</title>
<polygon fill="#f2f2f2" stroke="black" points="404.82,-736.1 404.82,-852.9 617.17,-852.9 617.17,-736.1 404.82,-736.1"/>
<text text-anchor="middle" x="511" y="-836.3" font-family="Times,serif" font-size="14.00">&lt;&lt;Abstract&gt;&gt;</text>
<text text-anchor="middle" x="511" y="-819.5" font-family="Times,serif" font-size="14.00">Context</text>
<polyline fill="none" stroke="black" points="404.82,-811.3 617.17,-811.3 "/>
<text text-anchor="start" x="412.82" y="-794.7" font-family="Times,serif" font-size="14.00">Internal:</text>
<text text-anchor="start" x="412.82" y="-777.9" font-family="Times,serif" font-size="14.00"> &#160;&#160;&#160;_msgSender(): address</text>
<text text-anchor="start" x="412.82" y="-761.1" font-family="Times,serif" font-size="14.00"> &#160;&#160;&#160;_msgData(): bytes</text>
<text text-anchor="start" x="412.82" y="-744.3" font-family="Times,serif" font-size="14.00"> &#160;&#160;&#160;_contextSuffixLength(): uint256</text>
</g>
<!-- 6 -->
<g id="node7" class="node">
<title>6</title>
<polygon fill="#f2f2f2" stroke="black" points="0,-221.5 0,-699.1 459.99,-699.1 459.99,-221.5 0,-221.5"/>
<text text-anchor="middle" x="230" y="-682.5" font-family="Times,serif" font-size="14.00">&lt;&lt;Abstract&gt;&gt;</text>
<text text-anchor="middle" x="230" y="-665.7" font-family="Times,serif" font-size="14.00">ERC20</text>
<polyline fill="none" stroke="black" points="0,-657.5 459.99,-657.5 "/>
<text text-anchor="start" x="8" y="-640.9" font-family="Times,serif" font-size="14.00">Private:</text>
<text text-anchor="start" x="8" y="-624.1" font-family="Times,serif" font-size="14.00"> &#160;&#160;_balances: mapping(address=&gt;uint256)</text>
<text text-anchor="start" x="8" y="-607.3" font-family="Times,serif" font-size="14.00"> &#160;&#160;_allowances: mapping(address=&gt;mapping(address=&gt;uint256))</text>
<text text-anchor="start" x="8" y="-590.5" font-family="Times,serif" font-size="14.00"> &#160;&#160;_totalSupply: uint256</text>
<text text-anchor="start" x="8" y="-573.7" font-family="Times,serif" font-size="14.00"> &#160;&#160;_name: string</text>
<text text-anchor="start" x="8" y="-556.9" font-family="Times,serif" font-size="14.00"> &#160;&#160;_symbol: string</text>
<polyline fill="none" stroke="black" points="0,-548.7 459.99,-548.7 "/>
<text text-anchor="start" x="8" y="-532.1" font-family="Times,serif" font-size="14.00">Internal:</text>
<text text-anchor="start" x="8" y="-515.3" font-family="Times,serif" font-size="14.00"> &#160;&#160;&#160;_transfer(from: address, to: address, value: uint256)</text>
<text text-anchor="start" x="8" y="-498.5" font-family="Times,serif" font-size="14.00"> &#160;&#160;&#160;_update(from: address, to: address, value: uint256)</text>
<text text-anchor="start" x="8" y="-481.7" font-family="Times,serif" font-size="14.00"> &#160;&#160;&#160;_mint(account: address, value: uint256)</text>
<text text-anchor="start" x="8" y="-464.9" font-family="Times,serif" font-size="14.00"> &#160;&#160;&#160;_burn(account: address, value: uint256)</text>
<text text-anchor="start" x="8" y="-448.1" font-family="Times,serif" font-size="14.00"> &#160;&#160;&#160;_approve(owner: address, spender: address, value: uint256)</text>
<text text-anchor="start" x="8" y="-431.3" font-family="Times,serif" font-size="14.00"> &#160;&#160;&#160;_approve(owner: address, spender: address, value: uint256, emitEvent: bool)</text>
<text text-anchor="start" x="8" y="-414.5" font-family="Times,serif" font-size="14.00"> &#160;&#160;&#160;_spendAllowance(owner: address, spender: address, value: uint256)</text>
<text text-anchor="start" x="8" y="-397.7" font-family="Times,serif" font-size="14.00">Public:</text>
<text text-anchor="start" x="8" y="-380.9" font-family="Times,serif" font-size="14.00"> &#160;&#160;&#160;constructor(name_: string, symbol_: string)</text>
<text text-anchor="start" x="8" y="-364.1" font-family="Times,serif" font-size="14.00"> &#160;&#160;&#160;name(): string</text>
<text text-anchor="start" x="8" y="-347.3" font-family="Times,serif" font-size="14.00"> &#160;&#160;&#160;symbol(): string</text>
<text text-anchor="start" x="8" y="-330.5" font-family="Times,serif" font-size="14.00"> &#160;&#160;&#160;decimals(): uint8</text>
<text text-anchor="start" x="8" y="-313.7" font-family="Times,serif" font-size="14.00"> &#160;&#160;&#160;totalSupply(): uint256</text>
<text text-anchor="start" x="8" y="-296.9" font-family="Times,serif" font-size="14.00"> &#160;&#160;&#160;balanceOf(account: address): uint256</text>
<text text-anchor="start" x="8" y="-280.1" font-family="Times,serif" font-size="14.00"> &#160;&#160;&#160;transfer(to: address, value: uint256): bool</text>
<text text-anchor="start" x="8" y="-263.3" font-family="Times,serif" font-size="14.00"> &#160;&#160;&#160;allowance(owner: address, spender: address): uint256</text>
<text text-anchor="start" x="8" y="-246.5" font-family="Times,serif" font-size="14.00"> &#160;&#160;&#160;approve(spender: address, value: uint256): bool</text>
<text text-anchor="start" x="8" y="-229.7" font-family="Times,serif" font-size="14.00"> &#160;&#160;&#160;transferFrom(from: address, to: address, value: uint256): bool</text>
</g>
<!-- 6&#45;&gt;0 -->
<g id="edge5" class="edge">
<title>6&#45;&gt;0</title>
<path fill="none" stroke="black" stroke-dasharray="5,2" d="M174.86,-699.19C171.06,-715.56 167.54,-730.77 164.47,-743.99"/>
<polygon fill="none" stroke="black" points="154.2,-741.8 157.66,-773.4 174.66,-746.54 154.2,-741.8"/>
</g>
<!-- 6&#45;&gt;3 -->
<g id="edge3" class="edge">
<title>6&#45;&gt;3</title>
<path fill="none" stroke="black" stroke-dasharray="5,2" d="M225.56,-699.34C229.02,-750.77 236.05,-804.39 249,-853.4 249.7,-856.04 250.45,-858.69 251.24,-861.35"/>
<polygon fill="none" stroke="black" points="241.4,-864.99 261.38,-889.7 261.17,-857.91 241.4,-864.99"/>
</g>
<!-- 6&#45;&gt;4 -->
<g id="edge4" class="edge">
<title>6&#45;&gt;4</title>
<path fill="none" stroke="black" stroke-dasharray="5,2" d="M295.88,-699.19C296.59,-701.75 297.29,-704.28 297.98,-706.78"/>
<polygon fill="none" stroke="black" points="287.91,-709.75 306.03,-735.86 308.15,-704.15 287.91,-709.75"/>
</g>
<!-- 6&#45;&gt;5 -->
<g id="edge2" class="edge">
<title>6&#45;&gt;5</title>
<path fill="none" stroke="black" d="M431.23,-699.19C435.12,-703.8 438.94,-708.32 442.67,-712.72"/>
<polygon fill="none" stroke="black" points="434.85,-719.74 462.24,-735.86 450.88,-706.17 434.85,-719.74"/>
</g>
<!-- 7 -->
<g id="node8" class="node">
<title>7</title>
<polygon fill="#f2f2f2" stroke="black" points="1005.57,-752.9 1005.57,-836.1 1282.42,-836.1 1282.42,-752.9 1005.57,-752.9"/>
<text text-anchor="middle" x="1144" y="-819.5" font-family="Times,serif" font-size="14.00">&lt;&lt;Interface&gt;&gt;</text>
<text text-anchor="middle" x="1144" y="-802.7" font-family="Times,serif" font-size="14.00">IERC165</text>
<polyline fill="none" stroke="black" points="1005.57,-794.5 1282.42,-794.5 "/>
<text text-anchor="start" x="1013.57" y="-777.9" font-family="Times,serif" font-size="14.00">External:</text>
<text text-anchor="start" x="1013.57" y="-761.1" font-family="Times,serif" font-size="14.00"> &#160;&#160;&#160;&#160;supportsInterface(interfaceId: bytes4): bool</text>
</g>
<!-- 8 -->
<g id="node9" class="node">
<title>8</title>
<polygon fill="#f2f2f2" stroke="black" points="478.32,-418.7 478.32,-501.9 751.67,-501.9 751.67,-418.7 478.32,-418.7"/>
<text text-anchor="middle" x="615" y="-485.3" font-family="Times,serif" font-size="14.00">&lt;&lt;Abstract&gt;&gt;</text>
<text text-anchor="middle" x="615" y="-468.5" font-family="Times,serif" font-size="14.00">ERC165</text>
<polyline fill="none" stroke="black" points="478.32,-460.3 751.67,-460.3 "/>
<text text-anchor="start" x="486.32" y="-443.7" font-family="Times,serif" font-size="14.00">Public:</text>
<text text-anchor="start" x="486.32" y="-426.9" font-family="Times,serif" font-size="14.00"> &#160;&#160;&#160;supportsInterface(interfaceId: bytes4): bool</text>
</g>
<!-- 8&#45;&gt;7 -->
<g id="edge6" class="edge">
<title>8&#45;&gt;7</title>
<path fill="none" stroke="black" stroke-dasharray="5,2" d="M628.65,-502.28C648.72,-556.03 691.42,-649.39 760,-699.6 822.02,-745.01 903.27,-768.66 975.05,-780.9"/>
<polygon fill="none" stroke="black" points="973.92,-791.34 1005.16,-785.47 977.08,-770.58 973.92,-791.34"/>
</g>
<!-- 9 -->
<g id="node10" class="node">
<title>9</title>
<polygon fill="#f2f2f2" stroke="black" points="1128.69,-50.9 1128.69,-134.1 1663.3,-134.1 1663.3,-50.9 1128.69,-50.9"/>
<text text-anchor="middle" x="1396" y="-117.5" font-family="Times,serif" font-size="14.00">&lt;&lt;Interface&gt;&gt;</text>
<text text-anchor="middle" x="1396" y="-100.7" font-family="Times,serif" font-size="14.00">IERC1363Receiver</text>
<polyline fill="none" stroke="black" points="1128.69,-92.5 1663.3,-92.5 "/>
<text text-anchor="start" x="1136.69" y="-75.9" font-family="Times,serif" font-size="14.00">External:</text>
<text text-anchor="start" x="1136.69" y="-59.1" font-family="Times,serif" font-size="14.00"> &#160;&#160;&#160;&#160;onTransferReceived(operator: address, from: address, value: uint256, data: bytes): bytes4</text>
</g>
<!-- 10 -->
<g id="node11" class="node">
<title>10</title>
<polygon fill="#f2f2f2" stroke="black" points="1681.58,-50.9 1681.58,-134.1 2126.41,-134.1 2126.41,-50.9 1681.58,-50.9"/>
<text text-anchor="middle" x="1904" y="-117.5" font-family="Times,serif" font-size="14.00">&lt;&lt;Interface&gt;&gt;</text>
<text text-anchor="middle" x="1904" y="-100.7" font-family="Times,serif" font-size="14.00">IERC1363Spender</text>
<polyline fill="none" stroke="black" points="1681.58,-92.5 2126.41,-92.5 "/>
<text text-anchor="start" x="1689.58" y="-75.9" font-family="Times,serif" font-size="14.00">External:</text>
<text text-anchor="start" x="1689.58" y="-59.1" font-family="Times,serif" font-size="14.00"> &#160;&#160;&#160;&#160;onApprovalReceived(owner: address, value: uint256, data: bytes): bytes4</text>
</g>
<!-- 11 -->
<g id="node12" class="node">
<title>11</title>
<polygon fill="#f2f2f2" stroke="black" points="769.29,-410.3 769.29,-510.3 1414.71,-510.3 1414.71,-410.3 769.29,-410.3"/>
<text text-anchor="middle" x="1092" y="-493.7" font-family="Times,serif" font-size="14.00">&lt;&lt;Library&gt;&gt;</text>
<text text-anchor="middle" x="1092" y="-476.9" font-family="Times,serif" font-size="14.00">ERC1363Utils</text>
<polyline fill="none" stroke="black" points="769.29,-468.7 1414.71,-468.7 "/>
<text text-anchor="start" x="777.29" y="-452.1" font-family="Times,serif" font-size="14.00">Internal:</text>
<text text-anchor="start" x="777.29" y="-435.3" font-family="Times,serif" font-size="14.00"> &#160;&#160;&#160;checkOnERC1363TransferReceived(operator: address, from: address, to: address, value: uint256, data: bytes)</text>
<text text-anchor="start" x="777.29" y="-418.5" font-family="Times,serif" font-size="14.00"> &#160;&#160;&#160;checkOnERC1363ApprovalReceived(operator: address, spender: address, value: uint256, data: bytes)</text>
</g>
<!-- 12 -->
<g id="node13" class="node">
<title>12</title>
<polygon fill="#f2f2f2" stroke="black" points="1432.88,-376.7 1432.88,-543.9 1927.11,-543.9 1927.11,-376.7 1432.88,-376.7"/>
<text text-anchor="middle" x="1680" y="-527.3" font-family="Times,serif" font-size="14.00">&lt;&lt;Interface&gt;&gt;</text>
<text text-anchor="middle" x="1680" y="-510.5" font-family="Times,serif" font-size="14.00">IERC1363</text>
<polyline fill="none" stroke="black" points="1432.88,-502.3 1927.11,-502.3 "/>
<text text-anchor="start" x="1440.88" y="-485.7" font-family="Times,serif" font-size="14.00">External:</text>
<text text-anchor="start" x="1440.88" y="-468.9" font-family="Times,serif" font-size="14.00"> &#160;&#160;&#160;&#160;transferAndCall(to: address, value: uint256): bool</text>
<text text-anchor="start" x="1440.88" y="-452.1" font-family="Times,serif" font-size="14.00"> &#160;&#160;&#160;&#160;transferAndCall(to: address, value: uint256, data: bytes): bool</text>
<text text-anchor="start" x="1440.88" y="-435.3" font-family="Times,serif" font-size="14.00"> &#160;&#160;&#160;&#160;transferFromAndCall(from: address, to: address, value: uint256): bool</text>
<text text-anchor="start" x="1440.88" y="-418.5" font-family="Times,serif" font-size="14.00"> &#160;&#160;&#160;&#160;transferFromAndCall(from: address, to: address, value: uint256, data: bytes): bool</text>
<text text-anchor="start" x="1440.88" y="-401.7" font-family="Times,serif" font-size="14.00"> &#160;&#160;&#160;&#160;approveAndCall(spender: address, value: uint256): bool</text>
<text text-anchor="start" x="1440.88" y="-384.9" font-family="Times,serif" font-size="14.00"> &#160;&#160;&#160;&#160;approveAndCall(spender: address, value: uint256, data: bytes): bool</text>
</g>
<!-- 12&#45;&gt;3 -->
<g id="edge7" class="edge">
<title>12&#45;&gt;3</title>
<path fill="none" stroke="black" stroke-dasharray="5,2" d="M1623.44,-544.3C1555.88,-636.25 1433.87,-781.08 1291,-853.4 1167.81,-915.76 811.14,-957.06 566.68,-978.93"/>
<polygon fill="none" stroke="black" points="565.67,-968.48 536.7,-981.57 567.51,-989.4 565.67,-968.48"/>
</g>
<!-- 12&#45;&gt;7 -->
<g id="edge8" class="edge">
<title>12&#45;&gt;7</title>
<path fill="none" stroke="black" stroke-dasharray="5,2" d="M1608.37,-544.02C1560.54,-594.9 1493.8,-658.08 1424,-699.6 1389.41,-720.17 1349.72,-736.95 1311.29,-750.34"/>
<polygon fill="none" stroke="black" points="1307.8,-740.43 1282.61,-759.81 1314.39,-760.38 1307.8,-740.43"/>
</g>
<!-- 13 -->
<g id="node14" class="node">
<title>13</title>
<polygon fill="#f2f2f2" stroke="black" points="369.63,-0.5 369.63,-184.5 860.36,-184.5 860.36,-0.5 369.63,-0.5"/>
<text text-anchor="middle" x="615" y="-167.9" font-family="Times,serif" font-size="14.00">&lt;&lt;Abstract&gt;&gt;</text>
<text text-anchor="middle" x="615" y="-151.1" font-family="Times,serif" font-size="14.00">ERC1363</text>
<polyline fill="none" stroke="black" points="369.63,-142.9 860.36,-142.9 "/>
<text text-anchor="start" x="377.63" y="-126.3" font-family="Times,serif" font-size="14.00">Public:</text>
<text text-anchor="start" x="377.63" y="-109.5" font-family="Times,serif" font-size="14.00"> &#160;&#160;&#160;supportsInterface(interfaceId: bytes4): bool</text>
<text text-anchor="start" x="377.63" y="-92.7" font-family="Times,serif" font-size="14.00"> &#160;&#160;&#160;transferAndCall(to: address, value: uint256): bool</text>
<text text-anchor="start" x="377.63" y="-75.9" font-family="Times,serif" font-size="14.00"> &#160;&#160;&#160;transferAndCall(to: address, value: uint256, data: bytes): bool</text>
<text text-anchor="start" x="377.63" y="-59.1" font-family="Times,serif" font-size="14.00"> &#160;&#160;&#160;transferFromAndCall(from: address, to: address, value: uint256): bool</text>
<text text-anchor="start" x="377.63" y="-42.3" font-family="Times,serif" font-size="14.00"> &#160;&#160;&#160;transferFromAndCall(from: address, to: address, value: uint256, data: bytes): bool</text>
<text text-anchor="start" x="377.63" y="-25.5" font-family="Times,serif" font-size="14.00"> &#160;&#160;&#160;approveAndCall(spender: address, value: uint256): bool</text>
<text text-anchor="start" x="377.63" y="-8.7" font-family="Times,serif" font-size="14.00"> &#160;&#160;&#160;approveAndCall(spender: address, value: uint256, data: bytes): bool</text>
</g>
<!-- 13&#45;&gt;6 -->
<g id="edge9" class="edge">
<title>13&#45;&gt;6</title>
<path fill="none" stroke="black" d="M508.99,-184.61C500.72,-191.98 492.43,-199.45 482.34,-208.71"/>
<polygon fill="none" stroke="black" points="475.14,-201.07 460.28,-229.16 489.42,-216.46 475.14,-201.07"/>
</g>
<!-- 13&#45;&gt;8 -->
<g id="edge10" class="edge">
<title>13&#45;&gt;8</title>
<path fill="none" stroke="black" d="M615,-184.86C615,-247.78 615,-330.16 615,-388.19"/>
<polygon fill="none" stroke="black" points="604.5,-388.43 615,-418.43 625.5,-388.43 604.5,-388.43"/>
</g>
<!-- 13&#45;&gt;11 -->
<g id="edge12" class="edge">
<title>13&#45;&gt;11</title>
<path fill="none" stroke="black" stroke-dasharray="5,2" d="M733.83,-184.63C823.68,-253.53 944.12,-345.9 1019.89,-404.01"/>
<polygon fill="black" stroke="black" points="1017.93,-406.91 1028,-410.22 1022.19,-401.36 1017.93,-406.91"/>
</g>
<!-- 13&#45;&gt;12 -->
<g id="edge11" class="edge">
<title>13&#45;&gt;12</title>
<path fill="none" stroke="black" stroke-dasharray="5,2" d="M860.71,-183.21C863.48,-183.83 866.24,-184.43 869,-185 989.99,-210.19 1310.51,-172.05 1424,-221 1491.05,-249.92 1551.6,-304.26 1596.96,-353.76"/>
<polygon fill="none" stroke="black" points="1589.27,-360.91 1617.02,-376.42 1605,-346.99 1589.27,-360.91"/>
</g>
</g>
</svg>
