<?xml version="1.0" encoding="UTF-8" standalone="no"?>
<!DOCTYPE svg PUBLIC "-//W3C//DTD SVG 1.1//EN"
 "http://www.w3.org/Graphics/SVG/1.1/DTD/svg11.dtd">
<!-- Generated by graphviz version 5.0.0 (20220707.1540)
 -->
<!-- Title: UmlClassDiagram Pages: 1 -->
<svg width="2736pt" height="1253pt"
 viewBox="0.00 0.00 2736.13 1253.00" xmlns="http://www.w3.org/2000/svg" xmlns:xlink="http://www.w3.org/1999/xlink">
<g id="graph0" class="graph" transform="scale(1 1) rotate(0) translate(4 1249)">
<title>UmlClassDiagram</title>
<polygon fill="white" stroke="transparent" points="-4,4 -4,-1249 2732.13,-1249 2732.13,4 -4,4"/>
<!-- 0 -->
<g id="node1" class="node">
<title>0</title>
<polygon fill="#f2f2f2" stroke="black" points="768.05,-910.7 768.05,-952.3 865.37,-952.3 865.37,-910.7 768.05,-910.7"/>
<text text-anchor="middle" x="816.71" y="-935.7" font-family="Times,serif" font-size="14.00">&lt;&lt;Interface&gt;&gt;</text>
<text text-anchor="middle" x="816.71" y="-918.9" font-family="Times,serif" font-size="14.00">IERC20Errors</text>
</g>
<!-- 1 -->
<g id="node2" class="node">
<title>1</title>
<polygon fill="#f2f2f2" stroke="black" points="1479.77,-29.7 1479.77,-71.3 1583.65,-71.3 1583.65,-29.7 1479.77,-29.7"/>
<text text-anchor="middle" x="1531.71" y="-54.7" font-family="Times,serif" font-size="14.00">&lt;&lt;Interface&gt;&gt;</text>
<text text-anchor="middle" x="1531.71" y="-37.9" font-family="Times,serif" font-size="14.00">IERC721Errors</text>
</g>
<!-- 2 -->
<g id="node3" class="node">
<title>2</title>
<polygon fill="#f2f2f2" stroke="black" points="1601.27,-29.7 1601.27,-71.3 1712.15,-71.3 1712.15,-29.7 1601.27,-29.7"/>
<text text-anchor="middle" x="1656.71" y="-54.7" font-family="Times,serif" font-size="14.00">&lt;&lt;Interface&gt;&gt;</text>
<text text-anchor="middle" x="1656.71" y="-37.9" font-family="Times,serif" font-size="14.00">IERC1155Errors</text>
</g>
<!-- 3 -->
<g id="node4" class="node">
<title>3</title>
<polygon fill="#f2f2f2" stroke="black" points="771.03,-1026.9 771.03,-1244.5 1200.39,-1244.5 1200.39,-1026.9 771.03,-1026.9"/>
<text text-anchor="middle" x="985.71" y="-1227.9" font-family="Times,serif" font-size="14.00">&lt;&lt;Interface&gt;&gt;</text>
<text text-anchor="middle" x="985.71" y="-1211.1" font-family="Times,serif" font-size="14.00">IERC20</text>
<polyline fill="none" stroke="black" points="771.03,-1202.9 1200.39,-1202.9 "/>
<text text-anchor="start" x="779.03" y="-1186.3" font-family="Times,serif" font-size="14.00">External:</text>
<text text-anchor="start" x="779.03" y="-1169.5" font-family="Times,serif" font-size="14.00"> &#160;&#160;&#160;&#160;totalSupply(): uint256</text>
<text text-anchor="start" x="779.03" y="-1152.7" font-family="Times,serif" font-size="14.00"> &#160;&#160;&#160;&#160;balanceOf(account: address): uint256</text>
<text text-anchor="start" x="779.03" y="-1135.9" font-family="Times,serif" font-size="14.00"> &#160;&#160;&#160;&#160;transfer(to: address, value: uint256): bool</text>
<text text-anchor="start" x="779.03" y="-1119.1" font-family="Times,serif" font-size="14.00"> &#160;&#160;&#160;&#160;allowance(owner: address, spender: address): uint256</text>
<text text-anchor="start" x="779.03" y="-1102.3" font-family="Times,serif" font-size="14.00"> &#160;&#160;&#160;&#160;approve(spender: address, value: uint256): bool</text>
<text text-anchor="start" x="779.03" y="-1085.5" font-family="Times,serif" font-size="14.00"> &#160;&#160;&#160;&#160;transferFrom(from: address, to: address, value: uint256): bool</text>
<text text-anchor="start" x="779.03" y="-1068.7" font-family="Times,serif" font-size="14.00">Public:</text>
<text text-anchor="start" x="779.03" y="-1051.9" font-family="Times,serif" font-size="14.00"> &#160;&#160;&#160;&lt;&lt;event&gt;&gt; Transfer(from: address, to: address, value: uint256)</text>
<text text-anchor="start" x="779.03" y="-1035.1" font-family="Times,serif" font-size="14.00"> &#160;&#160;&#160;&lt;&lt;event&gt;&gt; Approval(owner: address, spender: address, value: uint256)</text>
</g>
<!-- 4 -->
<g id="node5" class="node">
<title>4</title>
<polygon fill="#f2f2f2" stroke="black" points="921.33,-873.1 921.33,-989.9 1050.09,-989.9 1050.09,-873.1 921.33,-873.1"/>
<text text-anchor="middle" x="985.71" y="-973.3" font-family="Times,serif" font-size="14.00">&lt;&lt;Interface&gt;&gt;</text>
<text text-anchor="middle" x="985.71" y="-956.5" font-family="Times,serif" font-size="14.00">IERC20Metadata</text>
<polyline fill="none" stroke="black" points="921.33,-948.3 1050.09,-948.3 "/>
<text text-anchor="start" x="929.33" y="-931.7" font-family="Times,serif" font-size="14.00">External:</text>
<text text-anchor="start" x="929.33" y="-914.9" font-family="Times,serif" font-size="14.00"> &#160;&#160;&#160;&#160;name(): string</text>
<text text-anchor="start" x="929.33" y="-898.1" font-family="Times,serif" font-size="14.00"> &#160;&#160;&#160;&#160;symbol(): string</text>
<text text-anchor="start" x="929.33" y="-881.3" font-family="Times,serif" font-size="14.00"> &#160;&#160;&#160;&#160;decimals(): uint8</text>
</g>
<!-- 4&#45;&gt;3 -->
<g id="edge1" class="edge">
<title>4&#45;&gt;3</title>
<path fill="none" stroke="black" stroke-dasharray="5,2" d="M985.71,-989.9C985.71,-992.07 985.71,-994.27 985.71,-996.5"/>
<polygon fill="none" stroke="black" points="975.21,-996.61 985.71,-1026.61 996.21,-996.61 975.21,-996.61"/>
</g>
<!-- 5 -->
<g id="node6" class="node">
<title>5</title>
<polygon fill="#f2f2f2" stroke="black" points="1068.53,-873.1 1068.53,-989.9 1280.89,-989.9 1280.89,-873.1 1068.53,-873.1"/>
<text text-anchor="middle" x="1174.71" y="-973.3" font-family="Times,serif" font-size="14.00">&lt;&lt;Abstract&gt;&gt;</text>
<text text-anchor="middle" x="1174.71" y="-956.5" font-family="Times,serif" font-size="14.00">Context</text>
<polyline fill="none" stroke="black" points="1068.53,-948.3 1280.89,-948.3 "/>
<text text-anchor="start" x="1076.53" y="-931.7" font-family="Times,serif" font-size="14.00">Internal:</text>
<text text-anchor="start" x="1076.53" y="-914.9" font-family="Times,serif" font-size="14.00"> &#160;&#160;&#160;_msgSender(): address</text>
<text text-anchor="start" x="1076.53" y="-898.1" font-family="Times,serif" font-size="14.00"> &#160;&#160;&#160;_msgData(): bytes</text>
<text text-anchor="start" x="1076.53" y="-881.3" font-family="Times,serif" font-size="14.00"> &#160;&#160;&#160;_contextSuffixLength(): uint256</text>
</g>
<!-- 6 -->
<g id="node7" class="node">
<title>6</title>
<polygon fill="#f2f2f2" stroke="black" points="663.71,-358.5 663.71,-836.1 1123.71,-836.1 1123.71,-358.5 663.71,-358.5"/>
<text text-anchor="middle" x="893.71" y="-819.5" font-family="Times,serif" font-size="14.00">&lt;&lt;Abstract&gt;&gt;</text>
<text text-anchor="middle" x="893.71" y="-802.7" font-family="Times,serif" font-size="14.00">ERC20</text>
<polyline fill="none" stroke="black" points="663.71,-794.5 1123.71,-794.5 "/>
<text text-anchor="start" x="671.71" y="-777.9" font-family="Times,serif" font-size="14.00">Private:</text>
<text text-anchor="start" x="671.71" y="-761.1" font-family="Times,serif" font-size="14.00"> &#160;&#160;_balances: mapping(address=&gt;uint256)</text>
<text text-anchor="start" x="671.71" y="-744.3" font-family="Times,serif" font-size="14.00"> &#160;&#160;_allowances: mapping(address=&gt;mapping(address=&gt;uint256))</text>
<text text-anchor="start" x="671.71" y="-727.5" font-family="Times,serif" font-size="14.00"> &#160;&#160;_totalSupply: uint256</text>
<text text-anchor="start" x="671.71" y="-710.7" font-family="Times,serif" font-size="14.00"> &#160;&#160;_name: string</text>
<text text-anchor="start" x="671.71" y="-693.9" font-family="Times,serif" font-size="14.00"> &#160;&#160;_symbol: string</text>
<polyline fill="none" stroke="black" points="663.71,-685.7 1123.71,-685.7 "/>
<text text-anchor="start" x="671.71" y="-669.1" font-family="Times,serif" font-size="14.00">Internal:</text>
<text text-anchor="start" x="671.71" y="-652.3" font-family="Times,serif" font-size="14.00"> &#160;&#160;&#160;_transfer(from: address, to: address, value: uint256)</text>
<text text-anchor="start" x="671.71" y="-635.5" font-family="Times,serif" font-size="14.00"> &#160;&#160;&#160;_update(from: address, to: address, value: uint256)</text>
<text text-anchor="start" x="671.71" y="-618.7" font-family="Times,serif" font-size="14.00"> &#160;&#160;&#160;_mint(account: address, value: uint256)</text>
<text text-anchor="start" x="671.71" y="-601.9" font-family="Times,serif" font-size="14.00"> &#160;&#160;&#160;_burn(account: address, value: uint256)</text>
<text text-anchor="start" x="671.71" y="-585.1" font-family="Times,serif" font-size="14.00"> &#160;&#160;&#160;_approve(owner: address, spender: address, value: uint256)</text>
<text text-anchor="start" x="671.71" y="-568.3" font-family="Times,serif" font-size="14.00"> &#160;&#160;&#160;_approve(owner: address, spender: address, value: uint256, emitEvent: bool)</text>
<text text-anchor="start" x="671.71" y="-551.5" font-family="Times,serif" font-size="14.00"> &#160;&#160;&#160;_spendAllowance(owner: address, spender: address, value: uint256)</text>
<text text-anchor="start" x="671.71" y="-534.7" font-family="Times,serif" font-size="14.00">Public:</text>
<text text-anchor="start" x="671.71" y="-517.9" font-family="Times,serif" font-size="14.00"> &#160;&#160;&#160;constructor(name_: string, symbol_: string)</text>
<text text-anchor="start" x="671.71" y="-501.1" font-family="Times,serif" font-size="14.00"> &#160;&#160;&#160;name(): string</text>
<text text-anchor="start" x="671.71" y="-484.3" font-family="Times,serif" font-size="14.00"> &#160;&#160;&#160;symbol(): string</text>
<text text-anchor="start" x="671.71" y="-467.5" font-family="Times,serif" font-size="14.00"> &#160;&#160;&#160;decimals(): uint8</text>
<text text-anchor="start" x="671.71" y="-450.7" font-family="Times,serif" font-size="14.00"> &#160;&#160;&#160;totalSupply(): uint256</text>
<text text-anchor="start" x="671.71" y="-433.9" font-family="Times,serif" font-size="14.00"> &#160;&#160;&#160;balanceOf(account: address): uint256</text>
<text text-anchor="start" x="671.71" y="-417.1" font-family="Times,serif" font-size="14.00"> &#160;&#160;&#160;transfer(to: address, value: uint256): bool</text>
<text text-anchor="start" x="671.71" y="-400.3" font-family="Times,serif" font-size="14.00"> &#160;&#160;&#160;allowance(owner: address, spender: address): uint256</text>
<text text-anchor="start" x="671.71" y="-383.5" font-family="Times,serif" font-size="14.00"> &#160;&#160;&#160;approve(spender: address, value: uint256): bool</text>
<text text-anchor="start" x="671.71" y="-366.7" font-family="Times,serif" font-size="14.00"> &#160;&#160;&#160;transferFrom(from: address, to: address, value: uint256): bool</text>
</g>
<!-- 6&#45;&gt;0 -->
<g id="edge5" class="edge">
<title>6&#45;&gt;0</title>
<path fill="none" stroke="black" stroke-dasharray="5,2" d="M838.57,-836.19C834.78,-852.56 831.25,-867.77 828.19,-880.99"/>
<polygon fill="none" stroke="black" points="817.91,-878.8 821.37,-910.4 838.37,-883.54 817.91,-878.8"/>
</g>
<!-- 6&#45;&gt;3 -->
<g id="edge3" class="edge">
<title>6&#45;&gt;3</title>
<path fill="none" stroke="black" stroke-dasharray="5,2" d="M889.27,-836.34C892.73,-887.77 899.76,-941.39 912.71,-990.4 913.41,-993.04 914.16,-995.69 914.96,-998.35"/>
<polygon fill="none" stroke="black" points="905.11,-1001.99 925.1,-1026.7 924.88,-994.91 905.11,-1001.99"/>
</g>
<!-- 6&#45;&gt;4 -->
<g id="edge4" class="edge">
<title>6&#45;&gt;4</title>
<path fill="none" stroke="black" stroke-dasharray="5,2" d="M959.59,-836.19C960.3,-838.75 961,-841.28 961.69,-843.78"/>
<polygon fill="none" stroke="black" points="951.62,-846.75 969.75,-872.86 971.86,-841.15 951.62,-846.75"/>
</g>
<!-- 6&#45;&gt;5 -->
<g id="edge2" class="edge">
<title>6&#45;&gt;5</title>
<path fill="none" stroke="black" d="M1094.94,-836.19C1098.83,-840.8 1102.65,-845.32 1106.38,-849.72"/>
<polygon fill="none" stroke="black" points="1098.56,-856.74 1125.95,-872.86 1114.6,-843.17 1098.56,-856.74"/>
</g>
<!-- 7 -->
<g id="node8" class="node">
<title>7</title>
<polygon fill="#f2f2f2" stroke="black" points="1337.29,-889.9 1337.29,-973.1 1614.13,-973.1 1614.13,-889.9 1337.29,-889.9"/>
<text text-anchor="middle" x="1475.71" y="-956.5" font-family="Times,serif" font-size="14.00">&lt;&lt;Interface&gt;&gt;</text>
<text text-anchor="middle" x="1475.71" y="-939.7" font-family="Times,serif" font-size="14.00">IERC165</text>
<polyline fill="none" stroke="black" points="1337.29,-931.5 1614.13,-931.5 "/>
<text text-anchor="start" x="1345.29" y="-914.9" font-family="Times,serif" font-size="14.00">External:</text>
<text text-anchor="start" x="1345.29" y="-898.1" font-family="Times,serif" font-size="14.00"> &#160;&#160;&#160;&#160;supportsInterface(interfaceId: bytes4): bool</text>
</g>
<!-- 8 -->
<g id="node9" class="node">
<title>8</title>
<polygon fill="#f2f2f2" stroke="black" points="1142.04,-555.7 1142.04,-638.9 1415.38,-638.9 1415.38,-555.7 1142.04,-555.7"/>
<text text-anchor="middle" x="1278.71" y="-622.3" font-family="Times,serif" font-size="14.00">&lt;&lt;Abstract&gt;&gt;</text>
<text text-anchor="middle" x="1278.71" y="-605.5" font-family="Times,serif" font-size="14.00">ERC165</text>
<polyline fill="none" stroke="black" points="1142.04,-597.3 1415.38,-597.3 "/>
<text text-anchor="start" x="1150.04" y="-580.7" font-family="Times,serif" font-size="14.00">Public:</text>
<text text-anchor="start" x="1150.04" y="-563.9" font-family="Times,serif" font-size="14.00"> &#160;&#160;&#160;supportsInterface(interfaceId: bytes4): bool</text>
</g>
<!-- 8&#45;&gt;7 -->
<g id="edge6" class="edge">
<title>8&#45;&gt;7</title>
<path fill="none" stroke="black" stroke-dasharray="5,2" d="M1302.87,-639.03C1336.07,-695.02 1396.21,-796.45 1436.06,-863.65"/>
<polygon fill="none" stroke="black" points="1427.18,-869.24 1451.51,-889.69 1445.24,-858.53 1427.18,-869.24"/>
</g>
<!-- 9 -->
<g id="node10" class="node">
<title>9</title>
<polygon fill="#f2f2f2" stroke="black" points="1730.4,-8.9 1730.4,-92.1 2265.02,-92.1 2265.02,-8.9 1730.4,-8.9"/>
<text text-anchor="middle" x="1997.71" y="-75.5" font-family="Times,serif" font-size="14.00">&lt;&lt;Interface&gt;&gt;</text>
<text text-anchor="middle" x="1997.71" y="-58.7" font-family="Times,serif" font-size="14.00">IERC1363Receiver</text>
<polyline fill="none" stroke="black" points="1730.4,-50.5 2265.02,-50.5 "/>
<text text-anchor="start" x="1738.4" y="-33.9" font-family="Times,serif" font-size="14.00">External:</text>
<text text-anchor="start" x="1738.4" y="-17.1" font-family="Times,serif" font-size="14.00"> &#160;&#160;&#160;&#160;onTransferReceived(operator: address, from: address, value: uint256, data: bytes): bytes4</text>
</g>
<!-- 10 -->
<g id="node11" class="node">
<title>10</title>
<polygon fill="#f2f2f2" stroke="black" points="2283.29,-8.9 2283.29,-92.1 2728.13,-92.1 2728.13,-8.9 2283.29,-8.9"/>
<text text-anchor="middle" x="2505.71" y="-75.5" font-family="Times,serif" font-size="14.00">&lt;&lt;Interface&gt;&gt;</text>
<text text-anchor="middle" x="2505.71" y="-58.7" font-family="Times,serif" font-size="14.00">IERC1363Spender</text>
<polyline fill="none" stroke="black" points="2283.29,-50.5 2728.13,-50.5 "/>
<text text-anchor="start" x="2291.29" y="-33.9" font-family="Times,serif" font-size="14.00">External:</text>
<text text-anchor="start" x="2291.29" y="-17.1" font-family="Times,serif" font-size="14.00"> &#160;&#160;&#160;&#160;onApprovalReceived(owner: address, value: uint256, data: bytes): bytes4</text>
</g>
<!-- 11 -->
<g id="node12" class="node">
<title>11</title>
<polygon fill="#f2f2f2" stroke="black" points="0,-547.3 0,-647.3 645.42,-647.3 645.42,-547.3 0,-547.3"/>
<text text-anchor="middle" x="322.71" y="-630.7" font-family="Times,serif" font-size="14.00">&lt;&lt;Library&gt;&gt;</text>
<text text-anchor="middle" x="322.71" y="-613.9" font-family="Times,serif" font-size="14.00">ERC1363Utils</text>
<polyline fill="none" stroke="black" points="0,-605.7 645.42,-605.7 "/>
<text text-anchor="start" x="8" y="-589.1" font-family="Times,serif" font-size="14.00">Internal:</text>
<text text-anchor="start" x="8" y="-572.3" font-family="Times,serif" font-size="14.00"> &#160;&#160;&#160;checkOnERC1363TransferReceived(operator: address, from: address, to: address, value: uint256, data: bytes)</text>
<text text-anchor="start" x="8" y="-555.5" font-family="Times,serif" font-size="14.00"> &#160;&#160;&#160;checkOnERC1363ApprovalReceived(operator: address, spender: address, value: uint256, data: bytes)</text>
</g>
<!-- 12 -->
<g id="node13" class="node">
<title>12</title>
<polygon fill="#f2f2f2" stroke="black" points="1433.59,-513.7 1433.59,-680.9 1927.83,-680.9 1927.83,-513.7 1433.59,-513.7"/>
<text text-anchor="middle" x="1680.71" y="-664.3" font-family="Times,serif" font-size="14.00">&lt;&lt;Interface&gt;&gt;</text>
<text text-anchor="middle" x="1680.71" y="-647.5" font-family="Times,serif" font-size="14.00">IERC1363</text>
<polyline fill="none" stroke="black" points="1433.59,-639.3 1927.83,-639.3 "/>
<text text-anchor="start" x="1441.59" y="-622.7" font-family="Times,serif" font-size="14.00">External:</text>
<text text-anchor="start" x="1441.59" y="-605.9" font-family="Times,serif" font-size="14.00"> &#160;&#160;&#160;&#160;transferAndCall(to: address, value: uint256): bool</text>
<text text-anchor="start" x="1441.59" y="-589.1" font-family="Times,serif" font-size="14.00"> &#160;&#160;&#160;&#160;transferAndCall(to: address, value: uint256, data: bytes): bool</text>
<text text-anchor="start" x="1441.59" y="-572.3" font-family="Times,serif" font-size="14.00"> &#160;&#160;&#160;&#160;transferFromAndCall(from: address, to: address, value: uint256): bool</text>
<text text-anchor="start" x="1441.59" y="-555.5" font-family="Times,serif" font-size="14.00"> &#160;&#160;&#160;&#160;transferFromAndCall(from: address, to: address, value: uint256, data: bytes): bool</text>
<text text-anchor="start" x="1441.59" y="-538.7" font-family="Times,serif" font-size="14.00"> &#160;&#160;&#160;&#160;approveAndCall(spender: address, value: uint256): bool</text>
<text text-anchor="start" x="1441.59" y="-521.9" font-family="Times,serif" font-size="14.00"> &#160;&#160;&#160;&#160;approveAndCall(spender: address, value: uint256, data: bytes): bool</text>
</g>
<!-- 12&#45;&gt;3 -->
<g id="edge7" class="edge">
<title>12&#45;&gt;3</title>
<path fill="none" stroke="black" stroke-dasharray="5,2" d="M1693.27,-680.95C1701.66,-769.15 1699.66,-907.38 1622.71,-990.4 1569.21,-1048.12 1386.46,-1085.67 1230.35,-1107.95"/>
<polygon fill="none" stroke="black" points="1228.81,-1097.56 1200.53,-1112.07 1231.69,-1118.37 1228.81,-1097.56"/>
</g>
<!-- 12&#45;&gt;7 -->
<g id="edge8" class="edge">
<title>12&#45;&gt;7</title>
<path fill="none" stroke="black" stroke-dasharray="5,2" d="M1629.51,-681.27C1594.65,-737.76 1549.12,-811.54 1516.66,-864.14"/>
<polygon fill="none" stroke="black" points="1507.61,-858.82 1500.79,-889.86 1525.48,-869.85 1507.61,-858.82"/>
</g>
<!-- 13 -->
<g id="node14" class="node">
<title>13</title>
<polygon fill="#f2f2f2" stroke="black" points="1033.34,-137.5 1033.34,-321.5 1524.08,-321.5 1524.08,-137.5 1033.34,-137.5"/>
<text text-anchor="middle" x="1278.71" y="-304.9" font-family="Times,serif" font-size="14.00">&lt;&lt;Abstract&gt;&gt;</text>
<text text-anchor="middle" x="1278.71" y="-288.1" font-family="Times,serif" font-size="14.00">ERC1363</text>
<polyline fill="none" stroke="black" points="1033.34,-279.9 1524.08,-279.9 "/>
<text text-anchor="start" x="1041.34" y="-263.3" font-family="Times,serif" font-size="14.00">Public:</text>
<text text-anchor="start" x="1041.34" y="-246.5" font-family="Times,serif" font-size="14.00"> &#160;&#160;&#160;supportsInterface(interfaceId: bytes4): bool</text>
<text text-anchor="start" x="1041.34" y="-229.7" font-family="Times,serif" font-size="14.00"> &#160;&#160;&#160;transferAndCall(to: address, value: uint256): bool</text>
<text text-anchor="start" x="1041.34" y="-212.9" font-family="Times,serif" font-size="14.00"> &#160;&#160;&#160;transferAndCall(to: address, value: uint256, data: bytes): bool</text>
<text text-anchor="start" x="1041.34" y="-196.1" font-family="Times,serif" font-size="14.00"> &#160;&#160;&#160;transferFromAndCall(from: address, to: address, value: uint256): bool</text>
<text text-anchor="start" x="1041.34" y="-179.3" font-family="Times,serif" font-size="14.00"> &#160;&#160;&#160;transferFromAndCall(from: address, to: address, value: uint256, data: bytes): bool</text>
<text text-anchor="start" x="1041.34" y="-162.5" font-family="Times,serif" font-size="14.00"> &#160;&#160;&#160;approveAndCall(spender: address, value: uint256): bool</text>
<text text-anchor="start" x="1041.34" y="-145.7" font-family="Times,serif" font-size="14.00"> &#160;&#160;&#160;approveAndCall(spender: address, value: uint256, data: bytes): bool</text>
</g>
<!-- 13&#45;&gt;6 -->
<g id="edge9" class="edge">
<title>13&#45;&gt;6</title>
<path fill="none" stroke="black" d="M1172.71,-321.61C1164.43,-328.98 1156.14,-336.45 1146.06,-345.71"/>
<polygon fill="none" stroke="black" points="1138.86,-338.07 1124,-366.16 1153.13,-353.46 1138.86,-338.07"/>
</g>
<!-- 13&#45;&gt;8 -->
<g id="edge10" class="edge">
<title>13&#45;&gt;8</title>
<path fill="none" stroke="black" d="M1278.71,-321.86C1278.71,-384.78 1278.71,-467.16 1278.71,-525.19"/>
<polygon fill="none" stroke="black" points="1268.21,-525.43 1278.71,-555.43 1289.21,-525.43 1268.21,-525.43"/>
</g>
<!-- 13&#45;&gt;11 -->
<g id="edge12" class="edge">
<title>13&#45;&gt;11</title>
<path fill="none" stroke="black" stroke-dasharray="5,2" d="M1033.32,-256.33C915.28,-274.77 773.88,-305.91 654.71,-358 550.59,-403.51 446.81,-485.34 383.7,-540.24"/>
<polygon fill="black" stroke="black" points="381.04,-537.91 375.82,-547.13 385.65,-543.17 381.04,-537.91"/>
</g>
<!-- 13&#45;&gt;12 -->
<g id="edge11" class="edge">
<title>13&#45;&gt;12</title>
<path fill="none" stroke="black" stroke-dasharray="5,2" d="M1383.93,-321.68C1397.71,-333.83 1411.59,-346.17 1424.71,-358 1473.12,-401.65 1525.96,-450.6 1570.98,-492.73"/>
<polygon fill="none" stroke="black" points="1564.01,-500.59 1593.08,-513.44 1578.37,-485.26 1564.01,-500.59"/>
</g>
<!-- 14 -->
<g id="node15" class="node">
<title>14</title>
<polygon fill="#f2f2f2" stroke="black" points="1095.17,-0.5 1095.17,-100.5 1462.25,-100.5 1462.25,-0.5 1095.17,-0.5"/>
<text text-anchor="middle" x="1278.71" y="-83.9" font-family="Times,serif" font-size="14.00">&lt;&lt;Abstract&gt;&gt;</text>
<text text-anchor="middle" x="1278.71" y="-67.1" font-family="Times,serif" font-size="14.00">ERC1363Mintable</text>
<polyline fill="none" stroke="black" points="1095.17,-58.9 1462.25,-58.9 "/>
<text text-anchor="start" x="1103.17" y="-42.3" font-family="Times,serif" font-size="14.00">Internal:</text>
<text text-anchor="start" x="1103.17" y="-25.5" font-family="Times,serif" font-size="14.00"> &#160;&#160;&#160;_mintAndCall(account: address, value: uint256)</text>
<text text-anchor="start" x="1103.17" y="-8.7" font-family="Times,serif" font-size="14.00"> &#160;&#160;&#160;_mintAndCall(account: address, value: uint256, data: bytes)</text>
</g>
<!-- 14&#45;&gt;11 -->
<g id="edge14" class="edge">
<title>14&#45;&gt;11</title>
<path fill="none" stroke="black" stroke-dasharray="5,2" d="M1115.79,-100.58C1085.07,-111.44 1053.55,-123.72 1024.71,-137 775.77,-251.64 513.5,-445.91 392,-540.81"/>
<polygon fill="black" stroke="black" points="389.57,-538.27 383.85,-547.19 393.88,-543.78 389.57,-538.27"/>
</g>
<!-- 14&#45;&gt;13 -->
<g id="edge13" class="edge">
<title>14&#45;&gt;13</title>
<path fill="none" stroke="black" d="M1278.71,-100.8C1278.71,-102.95 1278.71,-105.14 1278.71,-107.36"/>
<polygon fill="none" stroke="black" points="1268.21,-107.44 1278.71,-137.44 1289.21,-107.44 1268.21,-107.44"/>
</g>
</g>
</svg>
