<?xml version="1.0" encoding="UTF-8" standalone="no"?>
<!DOCTYPE svg PUBLIC "-//W3C//DTD SVG 1.1//EN"
 "http://www.w3.org/Graphics/SVG/1.1/DTD/svg11.dtd">
<!-- Generated by graphviz version 5.0.0 (20220707.1540)
 -->
<!-- Title: UmlClassDiagram Pages: 1 -->
<svg width="2134pt" height="1142pt"
 viewBox="0.00 0.00 2134.41 1142.00" xmlns="http://www.w3.org/2000/svg" xmlns:xlink="http://www.w3.org/1999/xlink">
<g id="graph0" class="graph" transform="scale(1 1) rotate(0) translate(4 1138)">
<title>UmlClassDiagram</title>
<polygon fill="white" stroke="transparent" points="-4,4 -4,-1138 2130.41,-1138 2130.41,4 -4,4"/>
<!-- 0 -->
<g id="node1" class="node">
<title>0</title>
<polygon fill="#f2f2f2" stroke="black" points="104.34,-798.7 104.34,-840.3 201.65,-840.3 201.65,-798.7 104.34,-798.7"/>
<text text-anchor="middle" x="153" y="-823.7" font-family="Times,serif" font-size="14.00">&lt;&lt;Interface&gt;&gt;</text>
<text text-anchor="middle" x="153" y="-806.9" font-family="Times,serif" font-size="14.00">IERC20Errors</text>
</g>
<!-- 1 -->
<g id="node2" class="node">
<title>1</title>
<polygon fill="#f2f2f2" stroke="black" points="878.06,-71.7 878.06,-113.3 981.94,-113.3 981.94,-71.7 878.06,-71.7"/>
<text text-anchor="middle" x="930" y="-96.7" font-family="Times,serif" font-size="14.00">&lt;&lt;Interface&gt;&gt;</text>
<text text-anchor="middle" x="930" y="-79.9" font-family="Times,serif" font-size="14.00">IERC721Errors</text>
</g>
<!-- 2 -->
<g id="node3" class="node">
<title>2</title>
<polygon fill="#f2f2f2" stroke="black" points="999.56,-71.7 999.56,-113.3 1110.44,-113.3 1110.44,-71.7 999.56,-71.7"/>
<text text-anchor="middle" x="1055" y="-96.7" font-family="Times,serif" font-size="14.00">&lt;&lt;Interface&gt;&gt;</text>
<text text-anchor="middle" x="1055" y="-79.9" font-family="Times,serif" font-size="14.00">IERC1155Errors</text>
</g>
<!-- 3 -->
<g id="node4" class="node">
<title>3</title>
<polygon fill="#f2f2f2" stroke="black" points="107.32,-915.9 107.32,-1133.5 536.68,-1133.5 536.68,-915.9 107.32,-915.9"/>
<text text-anchor="middle" x="322" y="-1116.9" font-family="Times,serif" font-size="14.00">&lt;&lt;Interface&gt;&gt;</text>
<text text-anchor="middle" x="322" y="-1100.1" font-family="Times,serif" font-size="14.00">IERC20</text>
<polyline fill="none" stroke="black" points="107.32,-1091.9 536.68,-1091.9 "/>
<text text-anchor="start" x="115.32" y="-1075.3" font-family="Times,serif" font-size="14.00">External:</text>
<text text-anchor="start" x="115.32" y="-1058.5" font-family="Times,serif" font-size="14.00"> &#160;&#160;&#160;&#160;totalSupply(): uint256</text>
<text text-anchor="start" x="115.32" y="-1041.7" font-family="Times,serif" font-size="14.00"> &#160;&#160;&#160;&#160;balanceOf(account: address): uint256</text>
<text text-anchor="start" x="115.32" y="-1024.9" font-family="Times,serif" font-size="14.00"> &#160;&#160;&#160;&#160;transfer(to: address, value: uint256): bool</text>
<text text-anchor="start" x="115.32" y="-1008.1" font-family="Times,serif" font-size="14.00"> &#160;&#160;&#160;&#160;allowance(owner: address, spender: address): uint256</text>
<text text-anchor="start" x="115.32" y="-991.3" font-family="Times,serif" font-size="14.00"> &#160;&#160;&#160;&#160;approve(spender: address, value: uint256): bool</text>
<text text-anchor="start" x="115.32" y="-974.5" font-family="Times,serif" font-size="14.00"> &#160;&#160;&#160;&#160;transferFrom(from: address, to: address, value: uint256): bool</text>
<text text-anchor="start" x="115.32" y="-957.7" font-family="Times,serif" font-size="14.00">Public:</text>
<text text-anchor="start" x="115.32" y="-940.9" font-family="Times,serif" font-size="14.00"> &#160;&#160;&#160;&lt;&lt;event&gt;&gt; Transfer(from: address, to: address, value: uint256)</text>
<text text-anchor="start" x="115.32" y="-924.1" font-family="Times,serif" font-size="14.00"> &#160;&#160;&#160;&lt;&lt;event&gt;&gt; Approval(owner: address, spender: address, value: uint256)</text>
</g>
<!-- 4 -->
<g id="node5" class="node">
<title>4</title>
<polygon fill="#f2f2f2" stroke="black" points="257.62,-761.1 257.62,-877.9 386.37,-877.9 386.37,-761.1 257.62,-761.1"/>
<text text-anchor="middle" x="322" y="-861.3" font-family="Times,serif" font-size="14.00">&lt;&lt;Interface&gt;&gt;</text>
<text text-anchor="middle" x="322" y="-844.5" font-family="Times,serif" font-size="14.00">IERC20Metadata</text>
<polyline fill="none" stroke="black" points="257.62,-836.3 386.37,-836.3 "/>
<text text-anchor="start" x="265.62" y="-819.7" font-family="Times,serif" font-size="14.00">External:</text>
<text text-anchor="start" x="265.62" y="-802.9" font-family="Times,serif" font-size="14.00"> &#160;&#160;&#160;&#160;name(): string</text>
<text text-anchor="start" x="265.62" y="-786.1" font-family="Times,serif" font-size="14.00"> &#160;&#160;&#160;&#160;symbol(): string</text>
<text text-anchor="start" x="265.62" y="-769.3" font-family="Times,serif" font-size="14.00"> &#160;&#160;&#160;&#160;decimals(): uint8</text>
</g>
<!-- 4&#45;&gt;3 -->
<g id="edge1" class="edge">
<title>4&#45;&gt;3</title>
<path fill="none" stroke="black" stroke-dasharray="5,2" d="M322,-877.91C322,-880.41 322,-882.96 322,-885.54"/>
<polygon fill="none" stroke="black" points="311.5,-885.61 322,-915.61 332.5,-885.61 311.5,-885.61"/>
</g>
<!-- 5 -->
<g id="node6" class="node">
<title>5</title>
<polygon fill="#f2f2f2" stroke="black" points="404.82,-761.1 404.82,-877.9 617.17,-877.9 617.17,-761.1 404.82,-761.1"/>
<text text-anchor="middle" x="511" y="-861.3" font-family="Times,serif" font-size="14.00">&lt;&lt;Abstract&gt;&gt;</text>
<text text-anchor="middle" x="511" y="-844.5" font-family="Times,serif" font-size="14.00">Context</text>
<polyline fill="none" stroke="black" points="404.82,-836.3 617.17,-836.3 "/>
<text text-anchor="start" x="412.82" y="-819.7" font-family="Times,serif" font-size="14.00">Internal:</text>
<text text-anchor="start" x="412.82" y="-802.9" font-family="Times,serif" font-size="14.00"> &#160;&#160;&#160;_msgSender(): address</text>
<text text-anchor="start" x="412.82" y="-786.1" font-family="Times,serif" font-size="14.00"> &#160;&#160;&#160;_msgData(): bytes</text>
<text text-anchor="start" x="412.82" y="-769.3" font-family="Times,serif" font-size="14.00"> &#160;&#160;&#160;_contextSuffixLength(): uint256</text>
</g>
<!-- 6 -->
<g id="node7" class="node">
<title>6</title>
<polygon fill="#f2f2f2" stroke="black" points="0,-245.5 0,-723.1 459.99,-723.1 459.99,-245.5 0,-245.5"/>
<text text-anchor="middle" x="230" y="-706.5" font-family="Times,serif" font-size="14.00">&lt;&lt;Abstract&gt;&gt;</text>
<text text-anchor="middle" x="230" y="-689.7" font-family="Times,serif" font-size="14.00">ERC20</text>
<polyline fill="none" stroke="black" points="0,-681.5 459.99,-681.5 "/>
<text text-anchor="start" x="8" y="-664.9" font-family="Times,serif" font-size="14.00">Private:</text>
<text text-anchor="start" x="8" y="-648.1" font-family="Times,serif" font-size="14.00"> &#160;&#160;_balances: mapping(address=&gt;uint256)</text>
<text text-anchor="start" x="8" y="-631.3" font-family="Times,serif" font-size="14.00"> &#160;&#160;_allowances: mapping(address=&gt;mapping(address=&gt;uint256))</text>
<text text-anchor="start" x="8" y="-614.5" font-family="Times,serif" font-size="14.00"> &#160;&#160;_totalSupply: uint256</text>
<text text-anchor="start" x="8" y="-597.7" font-family="Times,serif" font-size="14.00"> &#160;&#160;_name: string</text>
<text text-anchor="start" x="8" y="-580.9" font-family="Times,serif" font-size="14.00"> &#160;&#160;_symbol: string</text>
<polyline fill="none" stroke="black" points="0,-572.7 459.99,-572.7 "/>
<text text-anchor="start" x="8" y="-556.1" font-family="Times,serif" font-size="14.00">Internal:</text>
<text text-anchor="start" x="8" y="-539.3" font-family="Times,serif" font-size="14.00"> &#160;&#160;&#160;_transfer(from: address, to: address, value: uint256)</text>
<text text-anchor="start" x="8" y="-522.5" font-family="Times,serif" font-size="14.00"> &#160;&#160;&#160;_update(from: address, to: address, value: uint256)</text>
<text text-anchor="start" x="8" y="-505.7" font-family="Times,serif" font-size="14.00"> &#160;&#160;&#160;_mint(account: address, value: uint256)</text>
<text text-anchor="start" x="8" y="-488.9" font-family="Times,serif" font-size="14.00"> &#160;&#160;&#160;_burn(account: address, value: uint256)</text>
<text text-anchor="start" x="8" y="-472.1" font-family="Times,serif" font-size="14.00"> &#160;&#160;&#160;_approve(owner: address, spender: address, value: uint256)</text>
<text text-anchor="start" x="8" y="-455.3" font-family="Times,serif" font-size="14.00"> &#160;&#160;&#160;_approve(owner: address, spender: address, value: uint256, emitEvent: bool)</text>
<text text-anchor="start" x="8" y="-438.5" font-family="Times,serif" font-size="14.00"> &#160;&#160;&#160;_spendAllowance(owner: address, spender: address, value: uint256)</text>
<text text-anchor="start" x="8" y="-421.7" font-family="Times,serif" font-size="14.00">Public:</text>
<text text-anchor="start" x="8" y="-404.9" font-family="Times,serif" font-size="14.00"> &#160;&#160;&#160;constructor(name_: string, symbol_: string)</text>
<text text-anchor="start" x="8" y="-388.1" font-family="Times,serif" font-size="14.00"> &#160;&#160;&#160;name(): string</text>
<text text-anchor="start" x="8" y="-371.3" font-family="Times,serif" font-size="14.00"> &#160;&#160;&#160;symbol(): string</text>
<text text-anchor="start" x="8" y="-354.5" font-family="Times,serif" font-size="14.00"> &#160;&#160;&#160;decimals(): uint8</text>
<text text-anchor="start" x="8" y="-337.7" font-family="Times,serif" font-size="14.00"> &#160;&#160;&#160;totalSupply(): uint256</text>
<text text-anchor="start" x="8" y="-320.9" font-family="Times,serif" font-size="14.00"> &#160;&#160;&#160;balanceOf(account: address): uint256</text>
<text text-anchor="start" x="8" y="-304.1" font-family="Times,serif" font-size="14.00"> &#160;&#160;&#160;transfer(to: address, value: uint256): bool</text>
<text text-anchor="start" x="8" y="-287.3" font-family="Times,serif" font-size="14.00"> &#160;&#160;&#160;allowance(owner: address, spender: address): uint256</text>
<text text-anchor="start" x="8" y="-270.5" font-family="Times,serif" font-size="14.00"> &#160;&#160;&#160;approve(spender: address, value: uint256): bool</text>
<text text-anchor="start" x="8" y="-253.7" font-family="Times,serif" font-size="14.00"> &#160;&#160;&#160;transferFrom(from: address, to: address, value: uint256): bool</text>
</g>
<!-- 6&#45;&gt;0 -->
<g id="edge5" class="edge">
<title>6&#45;&gt;0</title>
<path fill="none" stroke="black" stroke-dasharray="5,2" d="M174.96,-723.46C171.1,-740.18 167.51,-755.7 164.4,-769.16"/>
<polygon fill="none" stroke="black" points="154.12,-766.99 157.6,-798.58 174.59,-771.72 154.12,-766.99"/>
</g>
<!-- 6&#45;&gt;3 -->
<g id="edge3" class="edge">
<title>6&#45;&gt;3</title>
<path fill="none" stroke="black" stroke-dasharray="5,2" d="M225.57,-723.14C229,-774.94 236.02,-829 249,-878.4 249.79,-881.41 250.65,-884.43 251.56,-887.45"/>
<polygon fill="none" stroke="black" points="241.7,-891.05 261.72,-915.74 261.46,-883.95 241.7,-891.05"/>
</g>
<!-- 6&#45;&gt;4 -->
<g id="edge4" class="edge">
<title>6&#45;&gt;4</title>
<path fill="none" stroke="black" stroke-dasharray="5,2" d="M295.76,-723.46C296.54,-726.29 297.31,-729.09 298.07,-731.84"/>
<polygon fill="none" stroke="black" points="288,-734.81 306.1,-760.94 308.24,-729.22 288,-734.81"/>
</g>
<!-- 6&#45;&gt;5 -->
<g id="edge2" class="edge">
<title>6&#45;&gt;5</title>
<path fill="none" stroke="black" d="M430.85,-723.46C435,-728.39 439.07,-733.21 443.02,-737.9"/>
<polygon fill="none" stroke="black" points="435.08,-744.77 462.45,-760.94 451.14,-731.23 435.08,-744.77"/>
</g>
<!-- 7 -->
<g id="node8" class="node">
<title>7</title>
<polygon fill="#f2f2f2" stroke="black" points="1005.57,-777.9 1005.57,-861.1 1282.42,-861.1 1282.42,-777.9 1005.57,-777.9"/>
<text text-anchor="middle" x="1144" y="-844.5" font-family="Times,serif" font-size="14.00">&lt;&lt;Interface&gt;&gt;</text>
<text text-anchor="middle" x="1144" y="-827.7" font-family="Times,serif" font-size="14.00">IERC165</text>
<polyline fill="none" stroke="black" points="1005.57,-819.5 1282.42,-819.5 "/>
<text text-anchor="start" x="1013.57" y="-802.9" font-family="Times,serif" font-size="14.00">External:</text>
<text text-anchor="start" x="1013.57" y="-786.1" font-family="Times,serif" font-size="14.00"> &#160;&#160;&#160;&#160;supportsInterface(interfaceId: bytes4): bool</text>
</g>
<!-- 8 -->
<g id="node9" class="node">
<title>8</title>
<polygon fill="#f2f2f2" stroke="black" points="478.32,-442.7 478.32,-525.9 751.67,-525.9 751.67,-442.7 478.32,-442.7"/>
<text text-anchor="middle" x="615" y="-509.3" font-family="Times,serif" font-size="14.00">&lt;&lt;Abstract&gt;&gt;</text>
<text text-anchor="middle" x="615" y="-492.5" font-family="Times,serif" font-size="14.00">ERC165</text>
<polyline fill="none" stroke="black" points="478.32,-484.3 751.67,-484.3 "/>
<text text-anchor="start" x="486.32" y="-467.7" font-family="Times,serif" font-size="14.00">Public:</text>
<text text-anchor="start" x="486.32" y="-450.9" font-family="Times,serif" font-size="14.00"> &#160;&#160;&#160;supportsInterface(interfaceId: bytes4): bool</text>
</g>
<!-- 8&#45;&gt;7 -->
<g id="edge6" class="edge">
<title>8&#45;&gt;7</title>
<path fill="none" stroke="black" stroke-dasharray="5,2" d="M628.67,-526.25C648.76,-579.98 691.48,-673.31 760,-723.6 822,-769.11 903.25,-792.97 975.04,-805.4"/>
<polygon fill="none" stroke="black" points="973.89,-815.85 1005.14,-810.06 977.1,-795.1 973.89,-815.85"/>
</g>
<!-- 9 -->
<g id="node10" class="node">
<title>9</title>
<polygon fill="#f2f2f2" stroke="black" points="1128.69,-50.9 1128.69,-134.1 1663.3,-134.1 1663.3,-50.9 1128.69,-50.9"/>
<text text-anchor="middle" x="1396" y="-117.5" font-family="Times,serif" font-size="14.00">&lt;&lt;Interface&gt;&gt;</text>
<text text-anchor="middle" x="1396" y="-100.7" font-family="Times,serif" font-size="14.00">IERC1363Receiver</text>
<polyline fill="none" stroke="black" points="1128.69,-92.5 1663.3,-92.5 "/>
<text text-anchor="start" x="1136.69" y="-75.9" font-family="Times,serif" font-size="14.00">External:</text>
<text text-anchor="start" x="1136.69" y="-59.1" font-family="Times,serif" font-size="14.00"> &#160;&#160;&#160;&#160;onTransferReceived(operator: address, from: address, value: uint256, data: bytes): bytes4</text>
</g>
<!-- 10 -->
<g id="node11" class="node">
<title>10</title>
<polygon fill="#f2f2f2" stroke="black" points="1681.58,-50.9 1681.58,-134.1 2126.41,-134.1 2126.41,-50.9 1681.58,-50.9"/>
<text text-anchor="middle" x="1904" y="-117.5" font-family="Times,serif" font-size="14.00">&lt;&lt;Interface&gt;&gt;</text>
<text text-anchor="middle" x="1904" y="-100.7" font-family="Times,serif" font-size="14.00">IERC1363Spender</text>
<polyline fill="none" stroke="black" points="1681.58,-92.5 2126.41,-92.5 "/>
<text text-anchor="start" x="1689.58" y="-75.9" font-family="Times,serif" font-size="14.00">External:</text>
<text text-anchor="start" x="1689.58" y="-59.1" font-family="Times,serif" font-size="14.00"> &#160;&#160;&#160;&#160;onApprovalReceived(owner: address, value: uint256, data: bytes): bytes4</text>
</g>
<!-- 11 -->
<g id="node12" class="node">
<title>11</title>
<polygon fill="#f2f2f2" stroke="black" points="769.29,-434.3 769.29,-534.3 1414.71,-534.3 1414.71,-434.3 769.29,-434.3"/>
<text text-anchor="middle" x="1092" y="-517.7" font-family="Times,serif" font-size="14.00">&lt;&lt;Library&gt;&gt;</text>
<text text-anchor="middle" x="1092" y="-500.9" font-family="Times,serif" font-size="14.00">ERC1363Utils</text>
<polyline fill="none" stroke="black" points="769.29,-492.7 1414.71,-492.7 "/>
<text text-anchor="start" x="777.29" y="-476.1" font-family="Times,serif" font-size="14.00">Internal:</text>
<text text-anchor="start" x="777.29" y="-459.3" font-family="Times,serif" font-size="14.00"> &#160;&#160;&#160;checkOnERC1363TransferReceived(operator: address, from: address, to: address, value: uint256, data: bytes)</text>
<text text-anchor="start" x="777.29" y="-442.5" font-family="Times,serif" font-size="14.00"> &#160;&#160;&#160;checkOnERC1363ApprovalReceived(operator: address, spender: address, value: uint256, data: bytes)</text>
</g>
<!-- 12 -->
<g id="node13" class="node">
<title>12</title>
<polygon fill="#f2f2f2" stroke="black" points="1432.88,-400.7 1432.88,-567.9 1927.11,-567.9 1927.11,-400.7 1432.88,-400.7"/>
<text text-anchor="middle" x="1680" y="-551.3" font-family="Times,serif" font-size="14.00">&lt;&lt;Interface&gt;&gt;</text>
<text text-anchor="middle" x="1680" y="-534.5" font-family="Times,serif" font-size="14.00">IERC1363</text>
<polyline fill="none" stroke="black" points="1432.88,-526.3 1927.11,-526.3 "/>
<text text-anchor="start" x="1440.88" y="-509.7" font-family="Times,serif" font-size="14.00">External:</text>
<text text-anchor="start" x="1440.88" y="-492.9" font-family="Times,serif" font-size="14.00"> &#160;&#160;&#160;&#160;transferAndCall(to: address, value: uint256): bool</text>
<text text-anchor="start" x="1440.88" y="-476.1" font-family="Times,serif" font-size="14.00"> &#160;&#160;&#160;&#160;transferAndCall(to: address, value: uint256, data: bytes): bool</text>
<text text-anchor="start" x="1440.88" y="-459.3" font-family="Times,serif" font-size="14.00"> &#160;&#160;&#160;&#160;transferFromAndCall(from: address, to: address, value: uint256): bool</text>
<text text-anchor="start" x="1440.88" y="-442.5" font-family="Times,serif" font-size="14.00"> &#160;&#160;&#160;&#160;transferFromAndCall(from: address, to: address, value: uint256, data: bytes): bool</text>
<text text-anchor="start" x="1440.88" y="-425.7" font-family="Times,serif" font-size="14.00"> &#160;&#160;&#160;&#160;approveAndCall(spender: address, value: uint256): bool</text>
<text text-anchor="start" x="1440.88" y="-408.9" font-family="Times,serif" font-size="14.00"> &#160;&#160;&#160;&#160;approveAndCall(spender: address, value: uint256, data: bytes): bool</text>
</g>
<!-- 12&#45;&gt;3 -->
<g id="edge7" class="edge">
<title>12&#45;&gt;3</title>
<path fill="none" stroke="black" stroke-dasharray="5,2" d="M1623.78,-568.07C1556.31,-660.22 1434.19,-805.71 1291,-878.4 1167.86,-940.91 811.18,-982.57 566.7,-1004.69"/>
<polygon fill="none" stroke="black" points="565.67,-994.24 536.72,-1007.35 567.53,-1015.16 565.67,-994.24"/>
</g>
<!-- 12&#45;&gt;7 -->
<g id="edge8" class="edge">
<title>12&#45;&gt;7</title>
<path fill="none" stroke="black" stroke-dasharray="5,2" d="M1608.32,-567.95C1560.48,-618.79 1493.73,-681.97 1424,-723.6 1389.41,-744.25 1349.71,-761.16 1311.29,-774.68"/>
<polygon fill="none" stroke="black" points="1307.73,-764.79 1282.6,-784.25 1314.38,-784.71 1307.73,-764.79"/>
</g>
<!-- 13 -->
<g id="node14" class="node">
<title>13</title>
<polygon fill="#f2f2f2" stroke="black" points="369.63,-0.5 369.63,-184.5 860.36,-184.5 860.36,-0.5 369.63,-0.5"/>
<text text-anchor="middle" x="615" y="-167.9" font-family="Times,serif" font-size="14.00">&lt;&lt;Abstract&gt;&gt;</text>
<text text-anchor="middle" x="615" y="-151.1" font-family="Times,serif" font-size="14.00">ERC1363</text>
<polyline fill="none" stroke="black" points="369.63,-142.9 860.36,-142.9 "/>
<text text-anchor="start" x="377.63" y="-126.3" font-family="Times,serif" font-size="14.00">Public:</text>
<text text-anchor="start" x="377.63" y="-109.5" font-family="Times,serif" font-size="14.00"> &#160;&#160;&#160;supportsInterface(interfaceId: bytes4): bool</text>
<text text-anchor="start" x="377.63" y="-92.7" font-family="Times,serif" font-size="14.00"> &#160;&#160;&#160;transferAndCall(to: address, value: uint256): bool</text>
<text text-anchor="start" x="377.63" y="-75.9" font-family="Times,serif" font-size="14.00"> &#160;&#160;&#160;transferAndCall(to: address, value: uint256, data: bytes): bool</text>
<text text-anchor="start" x="377.63" y="-59.1" font-family="Times,serif" font-size="14.00"> &#160;&#160;&#160;transferFromAndCall(from: address, to: address, value: uint256): bool</text>
<text text-anchor="start" x="377.63" y="-42.3" font-family="Times,serif" font-size="14.00"> &#160;&#160;&#160;transferFromAndCall(from: address, to: address, value: uint256, data: bytes): bool</text>
<text text-anchor="start" x="377.63" y="-25.5" font-family="Times,serif" font-size="14.00"> &#160;&#160;&#160;approveAndCall(spender: address, value: uint256): bool</text>
<text text-anchor="start" x="377.63" y="-8.7" font-family="Times,serif" font-size="14.00"> &#160;&#160;&#160;approveAndCall(spender: address, value: uint256, data: bytes): bool</text>
</g>
<!-- 13&#45;&gt;6 -->
<g id="edge9" class="edge">
<title>13&#45;&gt;6</title>
<path fill="none" stroke="black" d="M524.73,-184.89C511.13,-198.66 496.58,-213.4 481.48,-228.68"/>
<polygon fill="none" stroke="black" points="473.84,-221.48 460.23,-250.2 488.78,-236.23 473.84,-221.48"/>
</g>
<!-- 13&#45;&gt;8 -->
<g id="edge10" class="edge">
<title>13&#45;&gt;8</title>
<path fill="none" stroke="black" d="M615,-184.89C615,-254.35 615,-348.53 615,-412.37"/>
<polygon fill="none" stroke="black" points="604.5,-412.7 615,-442.7 625.5,-412.7 604.5,-412.7"/>
</g>
<!-- 13&#45;&gt;11 -->
<g id="edge12" class="edge">
<title>13&#45;&gt;11</title>
<path fill="none" stroke="black" stroke-dasharray="5,2" d="M726.53,-184.64C818.77,-260.02 946.76,-364.61 1024.23,-427.92"/>
<polygon fill="black" stroke="black" points="1022.07,-430.68 1032.03,-434.3 1026.5,-425.26 1022.07,-430.68"/>
<text text-anchor="start" x="769" y="-218" font-family="Times,serif" font-size="10.00">checkOnERC1363ApprovalReceived</text>
<text text-anchor="start" x="769" y="-206" font-family="Times,serif" font-size="10.00">checkOnERC1363TransferReceived</text>
</g>
<!-- 13&#45;&gt;12 -->
<g id="edge11" class="edge">
<title>13&#45;&gt;12</title>
<path fill="none" stroke="black" stroke-dasharray="5,2" d="M860.4,-182.96C863.28,-183.66 866.14,-184.34 869,-185 1110.75,-240.77 1198.34,-141.88 1424,-245 1490.06,-275.19 1550.28,-329.19 1595.69,-378.17"/>
<polygon fill="none" stroke="black" points="1587.95,-385.26 1615.8,-400.58 1603.58,-371.24 1587.95,-385.26"/>
</g>
</g>
</svg>
