<?xml version="1.0" encoding="UTF-8" standalone="no"?>
<!DOCTYPE svg PUBLIC "-//W3C//DTD SVG 1.1//EN"
 "http://www.w3.org/Graphics/SVG/1.1/DTD/svg11.dtd">
<!-- Generated by graphviz version 5.0.0 (20220707.1540)
 -->
<!-- Title: UmlClassDiagram Pages: 1 -->
<svg width="2337pt" height="1166pt"
 viewBox="0.00 0.00 2337.41 1166.40" xmlns="http://www.w3.org/2000/svg" xmlns:xlink="http://www.w3.org/1999/xlink">
<g id="graph0" class="graph" transform="scale(1 1) rotate(0) translate(4 1162.4)">
<title>UmlClassDiagram</title>
<polygon fill="white" stroke="transparent" points="-4,4 -4,-1162.4 2333.41,-1162.4 2333.41,4 -4,4"/>
<!-- 0 -->
<g id="node1" class="node">
<title>0</title>
<polygon fill="#f2f2f2" stroke="black" points="104.34,-824.1 104.34,-865.7 201.65,-865.7 201.65,-824.1 104.34,-824.1"/>
<text text-anchor="middle" x="153" y="-849.1" font-family="Times,serif" font-size="14.00">&lt;&lt;Interface&gt;&gt;</text>
<text text-anchor="middle" x="153" y="-832.3" font-family="Times,serif" font-size="14.00">IERC20Errors</text>
</g>
<!-- 1 -->
<g id="node2" class="node">
<title>1</title>
<polygon fill="#f2f2f2" stroke="black" points="1081.06,-96.9 1081.06,-138.5 1184.94,-138.5 1184.94,-96.9 1081.06,-96.9"/>
<text text-anchor="middle" x="1133" y="-121.9" font-family="Times,serif" font-size="14.00">&lt;&lt;Interface&gt;&gt;</text>
<text text-anchor="middle" x="1133" y="-105.1" font-family="Times,serif" font-size="14.00">IERC721Errors</text>
</g>
<!-- 2 -->
<g id="node3" class="node">
<title>2</title>
<polygon fill="#f2f2f2" stroke="black" points="1202.56,-96.9 1202.56,-138.5 1313.44,-138.5 1313.44,-96.9 1202.56,-96.9"/>
<text text-anchor="middle" x="1258" y="-121.9" font-family="Times,serif" font-size="14.00">&lt;&lt;Interface&gt;&gt;</text>
<text text-anchor="middle" x="1258" y="-105.1" font-family="Times,serif" font-size="14.00">IERC1155Errors</text>
</g>
<!-- 3 -->
<g id="node4" class="node">
<title>3</title>
<polygon fill="#f2f2f2" stroke="black" points="107.32,-940.3 107.32,-1157.9 536.68,-1157.9 536.68,-940.3 107.32,-940.3"/>
<text text-anchor="middle" x="322" y="-1141.3" font-family="Times,serif" font-size="14.00">&lt;&lt;Interface&gt;&gt;</text>
<text text-anchor="middle" x="322" y="-1124.5" font-family="Times,serif" font-size="14.00">IERC20</text>
<polyline fill="none" stroke="black" points="107.32,-1116.3 536.68,-1116.3 "/>
<text text-anchor="start" x="115.32" y="-1099.7" font-family="Times,serif" font-size="14.00">External:</text>
<text text-anchor="start" x="115.32" y="-1082.9" font-family="Times,serif" font-size="14.00"> &#160;&#160;&#160;&#160;totalSupply(): uint256</text>
<text text-anchor="start" x="115.32" y="-1066.1" font-family="Times,serif" font-size="14.00"> &#160;&#160;&#160;&#160;balanceOf(account: address): uint256</text>
<text text-anchor="start" x="115.32" y="-1049.3" font-family="Times,serif" font-size="14.00"> &#160;&#160;&#160;&#160;transfer(to: address, value: uint256): bool</text>
<text text-anchor="start" x="115.32" y="-1032.5" font-family="Times,serif" font-size="14.00"> &#160;&#160;&#160;&#160;allowance(owner: address, spender: address): uint256</text>
<text text-anchor="start" x="115.32" y="-1015.7" font-family="Times,serif" font-size="14.00"> &#160;&#160;&#160;&#160;approve(spender: address, value: uint256): bool</text>
<text text-anchor="start" x="115.32" y="-998.9" font-family="Times,serif" font-size="14.00"> &#160;&#160;&#160;&#160;transferFrom(from: address, to: address, value: uint256): bool</text>
<text text-anchor="start" x="115.32" y="-982.1" font-family="Times,serif" font-size="14.00">Public:</text>
<text text-anchor="start" x="115.32" y="-965.3" font-family="Times,serif" font-size="14.00"> &#160;&#160;&#160;&lt;&lt;event&gt;&gt; Transfer(from: address, to: address, value: uint256)</text>
<text text-anchor="start" x="115.32" y="-948.5" font-family="Times,serif" font-size="14.00"> &#160;&#160;&#160;&lt;&lt;event&gt;&gt; Approval(owner: address, spender: address, value: uint256)</text>
</g>
<!-- 4 -->
<g id="node5" class="node">
<title>4</title>
<polygon fill="#f2f2f2" stroke="black" points="257.62,-786.5 257.62,-903.3 386.37,-903.3 386.37,-786.5 257.62,-786.5"/>
<text text-anchor="middle" x="322" y="-886.7" font-family="Times,serif" font-size="14.00">&lt;&lt;Interface&gt;&gt;</text>
<text text-anchor="middle" x="322" y="-869.9" font-family="Times,serif" font-size="14.00">IERC20Metadata</text>
<polyline fill="none" stroke="black" points="257.62,-861.7 386.37,-861.7 "/>
<text text-anchor="start" x="265.62" y="-845.1" font-family="Times,serif" font-size="14.00">External:</text>
<text text-anchor="start" x="265.62" y="-828.3" font-family="Times,serif" font-size="14.00"> &#160;&#160;&#160;&#160;name(): string</text>
<text text-anchor="start" x="265.62" y="-811.5" font-family="Times,serif" font-size="14.00"> &#160;&#160;&#160;&#160;symbol(): string</text>
<text text-anchor="start" x="265.62" y="-794.7" font-family="Times,serif" font-size="14.00"> &#160;&#160;&#160;&#160;decimals(): uint8</text>
</g>
<!-- 4&#45;&gt;3 -->
<g id="edge1" class="edge">
<title>4&#45;&gt;3</title>
<path fill="none" stroke="black" stroke-dasharray="5,2" d="M322,-903.3C322,-905.47 322,-907.67 322,-909.9"/>
<polygon fill="none" stroke="black" points="311.5,-910.01 322,-940.01 332.5,-910.01 311.5,-910.01"/>
</g>
<!-- 5 -->
<g id="node6" class="node">
<title>5</title>
<polygon fill="#f2f2f2" stroke="black" points="404.04,-794.9 404.04,-894.9 561.95,-894.9 561.95,-794.9 404.04,-794.9"/>
<text text-anchor="middle" x="483" y="-878.3" font-family="Times,serif" font-size="14.00">&lt;&lt;Abstract&gt;&gt;</text>
<text text-anchor="middle" x="483" y="-861.5" font-family="Times,serif" font-size="14.00">Context</text>
<polyline fill="none" stroke="black" points="404.04,-853.3 561.95,-853.3 "/>
<text text-anchor="start" x="412.04" y="-836.7" font-family="Times,serif" font-size="14.00">Internal:</text>
<text text-anchor="start" x="412.04" y="-819.9" font-family="Times,serif" font-size="14.00"> &#160;&#160;&#160;_msgSender(): address</text>
<text text-anchor="start" x="412.04" y="-803.1" font-family="Times,serif" font-size="14.00"> &#160;&#160;&#160;_msgData(): bytes</text>
</g>
<!-- 6 -->
<g id="node7" class="node">
<title>6</title>
<polygon fill="#f2f2f2" stroke="black" points="0,-271.9 0,-749.5 459.99,-749.5 459.99,-271.9 0,-271.9"/>
<text text-anchor="middle" x="230" y="-732.9" font-family="Times,serif" font-size="14.00">&lt;&lt;Abstract&gt;&gt;</text>
<text text-anchor="middle" x="230" y="-716.1" font-family="Times,serif" font-size="14.00">ERC20</text>
<polyline fill="none" stroke="black" points="0,-707.9 459.99,-707.9 "/>
<text text-anchor="start" x="8" y="-691.3" font-family="Times,serif" font-size="14.00">Private:</text>
<text text-anchor="start" x="8" y="-674.5" font-family="Times,serif" font-size="14.00"> &#160;&#160;_balances: mapping(address=&gt;uint256)</text>
<text text-anchor="start" x="8" y="-657.7" font-family="Times,serif" font-size="14.00"> &#160;&#160;_allowances: mapping(address=&gt;mapping(address=&gt;uint256))</text>
<text text-anchor="start" x="8" y="-640.9" font-family="Times,serif" font-size="14.00"> &#160;&#160;_totalSupply: uint256</text>
<text text-anchor="start" x="8" y="-624.1" font-family="Times,serif" font-size="14.00"> &#160;&#160;_name: string</text>
<text text-anchor="start" x="8" y="-607.3" font-family="Times,serif" font-size="14.00"> &#160;&#160;_symbol: string</text>
<polyline fill="none" stroke="black" points="0,-599.1 459.99,-599.1 "/>
<text text-anchor="start" x="8" y="-582.5" font-family="Times,serif" font-size="14.00">Internal:</text>
<text text-anchor="start" x="8" y="-565.7" font-family="Times,serif" font-size="14.00"> &#160;&#160;&#160;_transfer(from: address, to: address, value: uint256)</text>
<text text-anchor="start" x="8" y="-548.9" font-family="Times,serif" font-size="14.00"> &#160;&#160;&#160;_update(from: address, to: address, value: uint256)</text>
<text text-anchor="start" x="8" y="-532.1" font-family="Times,serif" font-size="14.00"> &#160;&#160;&#160;_mint(account: address, value: uint256)</text>
<text text-anchor="start" x="8" y="-515.3" font-family="Times,serif" font-size="14.00"> &#160;&#160;&#160;_burn(account: address, value: uint256)</text>
<text text-anchor="start" x="8" y="-498.5" font-family="Times,serif" font-size="14.00"> &#160;&#160;&#160;_approve(owner: address, spender: address, value: uint256)</text>
<text text-anchor="start" x="8" y="-481.7" font-family="Times,serif" font-size="14.00"> &#160;&#160;&#160;_approve(owner: address, spender: address, value: uint256, emitEvent: bool)</text>
<text text-anchor="start" x="8" y="-464.9" font-family="Times,serif" font-size="14.00"> &#160;&#160;&#160;_spendAllowance(owner: address, spender: address, value: uint256)</text>
<text text-anchor="start" x="8" y="-448.1" font-family="Times,serif" font-size="14.00">Public:</text>
<text text-anchor="start" x="8" y="-431.3" font-family="Times,serif" font-size="14.00"> &#160;&#160;&#160;constructor(name_: string, symbol_: string)</text>
<text text-anchor="start" x="8" y="-414.5" font-family="Times,serif" font-size="14.00"> &#160;&#160;&#160;name(): string</text>
<text text-anchor="start" x="8" y="-397.7" font-family="Times,serif" font-size="14.00"> &#160;&#160;&#160;symbol(): string</text>
<text text-anchor="start" x="8" y="-380.9" font-family="Times,serif" font-size="14.00"> &#160;&#160;&#160;decimals(): uint8</text>
<text text-anchor="start" x="8" y="-364.1" font-family="Times,serif" font-size="14.00"> &#160;&#160;&#160;totalSupply(): uint256</text>
<text text-anchor="start" x="8" y="-347.3" font-family="Times,serif" font-size="14.00"> &#160;&#160;&#160;balanceOf(account: address): uint256</text>
<text text-anchor="start" x="8" y="-330.5" font-family="Times,serif" font-size="14.00"> &#160;&#160;&#160;transfer(to: address, value: uint256): bool</text>
<text text-anchor="start" x="8" y="-313.7" font-family="Times,serif" font-size="14.00"> &#160;&#160;&#160;allowance(owner: address, spender: address): uint256</text>
<text text-anchor="start" x="8" y="-296.9" font-family="Times,serif" font-size="14.00"> &#160;&#160;&#160;approve(spender: address, value: uint256): bool</text>
<text text-anchor="start" x="8" y="-280.1" font-family="Times,serif" font-size="14.00"> &#160;&#160;&#160;transferFrom(from: address, to: address, value: uint256): bool</text>
</g>
<!-- 6&#45;&gt;0 -->
<g id="edge5" class="edge">
<title>6&#45;&gt;0</title>
<path fill="none" stroke="black" stroke-dasharray="5,2" d="M174.86,-749.59C171.06,-765.96 167.54,-781.17 164.47,-794.39"/>
<polygon fill="none" stroke="black" points="154.2,-792.2 157.66,-823.8 174.66,-796.94 154.2,-792.2"/>
</g>
<!-- 6&#45;&gt;3 -->
<g id="edge3" class="edge">
<title>6&#45;&gt;3</title>
<path fill="none" stroke="black" stroke-dasharray="5,2" d="M225.56,-749.74C229.02,-801.17 236.05,-854.79 249,-903.8 249.7,-906.44 250.45,-909.09 251.24,-911.75"/>
<polygon fill="none" stroke="black" points="241.4,-915.39 261.38,-940.1 261.17,-908.31 241.4,-915.39"/>
</g>
<!-- 6&#45;&gt;4 -->
<g id="edge4" class="edge">
<title>6&#45;&gt;4</title>
<path fill="none" stroke="black" stroke-dasharray="5,2" d="M295.88,-749.59C296.59,-752.15 297.29,-754.68 297.98,-757.18"/>
<polygon fill="none" stroke="black" points="287.91,-760.15 306.03,-786.26 308.15,-754.55 287.91,-760.15"/>
</g>
<!-- 6&#45;&gt;5 -->
<g id="edge2" class="edge">
<title>6&#45;&gt;5</title>
<path fill="none" stroke="black" d="M411.17,-749.59C416.78,-756.96 422.21,-764.09 427.41,-770.91"/>
<polygon fill="none" stroke="black" points="419.08,-777.31 445.61,-794.81 435.79,-764.58 419.08,-777.31"/>
</g>
<!-- 7 -->
<g id="node8" class="node">
<title>7</title>
<polygon fill="#f2f2f2" stroke="black" points="645.57,-803.3 645.57,-886.5 922.42,-886.5 922.42,-803.3 645.57,-803.3"/>
<text text-anchor="middle" x="784" y="-869.9" font-family="Times,serif" font-size="14.00">&lt;&lt;Interface&gt;&gt;</text>
<text text-anchor="middle" x="784" y="-853.1" font-family="Times,serif" font-size="14.00">IERC165</text>
<polyline fill="none" stroke="black" points="645.57,-844.9 922.42,-844.9 "/>
<text text-anchor="start" x="653.57" y="-828.3" font-family="Times,serif" font-size="14.00">External:</text>
<text text-anchor="start" x="653.57" y="-811.5" font-family="Times,serif" font-size="14.00"> &#160;&#160;&#160;&#160;supportsInterface(interfaceId: bytes4): bool</text>
</g>
<!-- 8 -->
<g id="node9" class="node">
<title>8</title>
<polygon fill="#f2f2f2" stroke="black" points="478.32,-469.1 478.32,-552.3 751.67,-552.3 751.67,-469.1 478.32,-469.1"/>
<text text-anchor="middle" x="615" y="-535.7" font-family="Times,serif" font-size="14.00">&lt;&lt;Abstract&gt;&gt;</text>
<text text-anchor="middle" x="615" y="-518.9" font-family="Times,serif" font-size="14.00">ERC165</text>
<polyline fill="none" stroke="black" points="478.32,-510.7 751.67,-510.7 "/>
<text text-anchor="start" x="486.32" y="-494.1" font-family="Times,serif" font-size="14.00">Public:</text>
<text text-anchor="start" x="486.32" y="-477.3" font-family="Times,serif" font-size="14.00"> &#160;&#160;&#160;supportsInterface(interfaceId: bytes4): bool</text>
</g>
<!-- 8&#45;&gt;7 -->
<g id="edge6" class="edge">
<title>8&#45;&gt;7</title>
<path fill="none" stroke="black" stroke-dasharray="5,2" d="M635.72,-552.43C664.08,-608.17 715.34,-708.94 749.53,-776.15"/>
<polygon fill="none" stroke="black" points="740.28,-781.12 763.24,-803.09 758.99,-771.59 740.28,-781.12"/>
</g>
<!-- 9 -->
<g id="node10" class="node">
<title>9</title>
<polygon fill="#f2f2f2" stroke="black" points="769.88,-427.1 769.88,-594.3 1264.11,-594.3 1264.11,-427.1 769.88,-427.1"/>
<text text-anchor="middle" x="1017" y="-577.7" font-family="Times,serif" font-size="14.00">&lt;&lt;Interface&gt;&gt;</text>
<text text-anchor="middle" x="1017" y="-560.9" font-family="Times,serif" font-size="14.00">IERC1363</text>
<polyline fill="none" stroke="black" points="769.88,-552.7 1264.11,-552.7 "/>
<text text-anchor="start" x="777.88" y="-536.1" font-family="Times,serif" font-size="14.00">External:</text>
<text text-anchor="start" x="777.88" y="-519.3" font-family="Times,serif" font-size="14.00"> &#160;&#160;&#160;&#160;transferAndCall(to: address, value: uint256): bool</text>
<text text-anchor="start" x="777.88" y="-502.5" font-family="Times,serif" font-size="14.00"> &#160;&#160;&#160;&#160;transferAndCall(to: address, value: uint256, data: bytes): bool</text>
<text text-anchor="start" x="777.88" y="-485.7" font-family="Times,serif" font-size="14.00"> &#160;&#160;&#160;&#160;transferFromAndCall(from: address, to: address, value: uint256): bool</text>
<text text-anchor="start" x="777.88" y="-468.9" font-family="Times,serif" font-size="14.00"> &#160;&#160;&#160;&#160;transferFromAndCall(from: address, to: address, value: uint256, data: bytes): bool</text>
<text text-anchor="start" x="777.88" y="-452.1" font-family="Times,serif" font-size="14.00"> &#160;&#160;&#160;&#160;approveAndCall(spender: address, value: uint256): bool</text>
<text text-anchor="start" x="777.88" y="-435.3" font-family="Times,serif" font-size="14.00"> &#160;&#160;&#160;&#160;approveAndCall(spender: address, value: uint256, data: bytes): bool</text>
</g>
<!-- 9&#45;&gt;3 -->
<g id="edge7" class="edge">
<title>9&#45;&gt;3</title>
<path fill="none" stroke="black" stroke-dasharray="5,2" d="M1022.69,-594.44C1024.01,-683.05 1011.5,-821.94 931,-903.8 879.55,-956.12 712.85,-993.4 566.85,-1016.95"/>
<polygon fill="none" stroke="black" points="565.03,-1006.6 537.01,-1021.62 568.28,-1027.35 565.03,-1006.6"/>
</g>
<!-- 9&#45;&gt;7 -->
<g id="edge8" class="edge">
<title>9&#45;&gt;7</title>
<path fill="none" stroke="black" stroke-dasharray="5,2" d="M958.8,-594.67C918.91,-651.55 866.72,-725.96 829.78,-778.62"/>
<polygon fill="none" stroke="black" points="821.13,-772.67 812.5,-803.26 838.32,-784.73 821.13,-772.67"/>
</g>
<!-- 10 -->
<g id="node11" class="node">
<title>10</title>
<polygon fill="#f2f2f2" stroke="black" points="1282.56,-489.9 1282.56,-531.5 1393.44,-531.5 1393.44,-489.9 1282.56,-489.9"/>
<text text-anchor="middle" x="1338" y="-514.9" font-family="Times,serif" font-size="14.00">&lt;&lt;Interface&gt;&gt;</text>
<text text-anchor="middle" x="1338" y="-498.1" font-family="Times,serif" font-size="14.00">IERC1363Errors</text>
</g>
<!-- 11 -->
<g id="node12" class="node">
<title>11</title>
<polygon fill="#f2f2f2" stroke="black" points="1331.69,-76.1 1331.69,-159.3 1866.3,-159.3 1866.3,-76.1 1331.69,-76.1"/>
<text text-anchor="middle" x="1599" y="-142.7" font-family="Times,serif" font-size="14.00">&lt;&lt;Interface&gt;&gt;</text>
<text text-anchor="middle" x="1599" y="-125.9" font-family="Times,serif" font-size="14.00">IERC1363Receiver</text>
<polyline fill="none" stroke="black" points="1331.69,-117.7 1866.3,-117.7 "/>
<text text-anchor="start" x="1339.69" y="-101.1" font-family="Times,serif" font-size="14.00">External:</text>
<text text-anchor="start" x="1339.69" y="-84.3" font-family="Times,serif" font-size="14.00"> &#160;&#160;&#160;&#160;onTransferReceived(operator: address, from: address, value: uint256, data: bytes): bytes4</text>
</g>
<!-- 12 -->
<g id="node13" class="node">
<title>12</title>
<polygon fill="#f2f2f2" stroke="black" points="1884.58,-76.1 1884.58,-159.3 2329.41,-159.3 2329.41,-76.1 1884.58,-76.1"/>
<text text-anchor="middle" x="2107" y="-142.7" font-family="Times,serif" font-size="14.00">&lt;&lt;Interface&gt;&gt;</text>
<text text-anchor="middle" x="2107" y="-125.9" font-family="Times,serif" font-size="14.00">IERC1363Spender</text>
<polyline fill="none" stroke="black" points="1884.58,-117.7 2329.41,-117.7 "/>
<text text-anchor="start" x="1892.58" y="-101.1" font-family="Times,serif" font-size="14.00">External:</text>
<text text-anchor="start" x="1892.58" y="-84.3" font-family="Times,serif" font-size="14.00"> &#160;&#160;&#160;&#160;onApprovalReceived(owner: address, value: uint256, data: bytes): bytes4</text>
</g>
<!-- 13 -->
<g id="node14" class="node">
<title>13</title>
<polygon fill="#f2f2f2" stroke="black" points="568.91,-0.5 568.91,-234.9 1063.08,-234.9 1063.08,-0.5 568.91,-0.5"/>
<text text-anchor="middle" x="816" y="-218.3" font-family="Times,serif" font-size="14.00">&lt;&lt;Abstract&gt;&gt;</text>
<text text-anchor="middle" x="816" y="-201.5" font-family="Times,serif" font-size="14.00">ERC1363</text>
<polyline fill="none" stroke="black" points="568.91,-193.3 1063.08,-193.3 "/>
<text text-anchor="start" x="576.91" y="-176.7" font-family="Times,serif" font-size="14.00">Private:</text>
<text text-anchor="start" x="576.91" y="-159.9" font-family="Times,serif" font-size="14.00"> &#160;&#160;&#160;_checkOnTransferReceived(from: address, to: address, value: uint256, data: bytes)</text>
<text text-anchor="start" x="576.91" y="-143.1" font-family="Times,serif" font-size="14.00"> &#160;&#160;&#160;_checkOnApprovalReceived(spender: address, value: uint256, data: bytes)</text>
<text text-anchor="start" x="576.91" y="-126.3" font-family="Times,serif" font-size="14.00">Public:</text>
<text text-anchor="start" x="576.91" y="-109.5" font-family="Times,serif" font-size="14.00"> &#160;&#160;&#160;supportsInterface(interfaceId: bytes4): bool</text>
<text text-anchor="start" x="576.91" y="-92.7" font-family="Times,serif" font-size="14.00"> &#160;&#160;&#160;transferAndCall(to: address, value: uint256): bool</text>
<text text-anchor="start" x="576.91" y="-75.9" font-family="Times,serif" font-size="14.00"> &#160;&#160;&#160;transferAndCall(to: address, value: uint256, data: bytes): bool</text>
<text text-anchor="start" x="576.91" y="-59.1" font-family="Times,serif" font-size="14.00"> &#160;&#160;&#160;transferFromAndCall(from: address, to: address, value: uint256): bool</text>
<text text-anchor="start" x="576.91" y="-42.3" font-family="Times,serif" font-size="14.00"> &#160;&#160;&#160;transferFromAndCall(from: address, to: address, value: uint256, data: bytes): bool</text>
<text text-anchor="start" x="576.91" y="-25.5" font-family="Times,serif" font-size="14.00"> &#160;&#160;&#160;approveAndCall(spender: address, value: uint256): bool</text>
<text text-anchor="start" x="576.91" y="-8.7" font-family="Times,serif" font-size="14.00"> &#160;&#160;&#160;approveAndCall(spender: address, value: uint256, data: bytes): bool</text>
</g>
<!-- 13&#45;&gt;6 -->
<g id="edge9" class="edge">
<title>13&#45;&gt;6</title>
<path fill="none" stroke="black" d="M568.65,-213.93C541.63,-227.35 514.83,-242.02 485.55,-260.73"/>
<polygon fill="none" stroke="black" points="479.51,-252.13 460.3,-277.46 491.11,-269.64 479.51,-252.13"/>
</g>
<!-- 13&#45;&gt;8 -->
<g id="edge10" class="edge">
<title>13&#45;&gt;8</title>
<path fill="none" stroke="black" d="M756.23,-234.95C721.57,-302.39 679.11,-384.98 649.85,-441.89"/>
<polygon fill="none" stroke="black" points="640.44,-437.24 636.06,-468.72 659.12,-446.84 640.44,-437.24"/>
</g>
<!-- 13&#45;&gt;9 -->
<g id="edge11" class="edge">
<title>13&#45;&gt;9</title>
<path fill="none" stroke="black" stroke-dasharray="5,2" d="M875.76,-234.95C902.69,-287.33 934.31,-348.85 960.8,-400.38"/>
<polygon fill="none" stroke="black" points="951.47,-405.2 974.53,-427.08 970.15,-395.6 951.47,-405.2"/>
</g>
<!-- 13&#45;&gt;10 -->
<g id="edge12" class="edge">
<title>13&#45;&gt;10</title>
<path fill="none" stroke="black" stroke-dasharray="5,2" d="M1063.23,-232.6C1066.16,-233.56 1069.08,-234.49 1072,-235.4 1158.63,-262.43 1206.03,-210.15 1273,-271.4 1325.42,-319.35 1337.22,-405.06 1339.01,-459.56"/>
<polygon fill="none" stroke="black" points="1328.51,-459.85 1339.08,-489.83 1349.51,-459.8 1328.51,-459.85"/>
</g>
</g>
</svg>
